<?xml version="1.0" encoding="UTF-8"?>
<!DOCTYPE svg PUBLIC "-//W3C//DTD SVG 1.1//EN" "http://www.w3.org/Graphics/SVG/1.1/DTD/svg11.dtd">
<!-- Creator: CorelDRAW 2019 (64-Bit) -->
<svg xmlns="http://www.w3.org/2000/svg" xml:space="preserve" width="225px" height="300px" version="1.1" style="shape-rendering:geometricPrecision; text-rendering:geometricPrecision; image-rendering:optimizeQuality; fill-rule:evenodd; clip-rule:evenodd"
viewBox="0 0 15.25 20.33"
 xmlns:xlink="http://www.w3.org/1999/xlink"
 xmlns:xodm="http://www.corel.com/coreldraw/odm/2003">
 <defs>
  <style type="text/css">
   <![CDATA[
    .fil3 {fill:none}
    .fil1 {fill:#004990}
    .fil0 {fill:white}
    .fil2 {fill:white;fill-rule:nonzero}
   ]]>
  </style>
 </defs>
 <g id="Layer_x0020_1">
  <metadata id="CorelCorpID_0Corel-Layer"/>
  <g id="_1955329439440">
   <path class="fil0" d="M13.86 6c2.29,3.43 1.36,8.1 -2.07,10.4 -3.43,2.29 -8.1,1.37 -10.39,-2.07 -2.3,-3.43 -1.37,-8.1 2.06,-10.39 3.43,-2.3 8.1,-1.37 10.4,2.06z"/>
   <path class="fil1" d="M13.73 6.13c2.24,3.35 1.33,7.91 -2.02,10.15 -3.35,2.24 -7.91,1.34 -10.15,-2.01 -2.24,-3.36 -1.34,-7.92 2.01,-10.16 3.35,-2.24 7.91,-1.33 10.16,2.02z"/>
   <path class="fil0" d="M11.48 15.93c-3.18,2.13 -7.49,1.27 -9.61,-1.91 -2.13,-3.18 -1.28,-7.49 1.9,-9.61 3.18,-2.13 7.49,-1.28 9.62,1.9 2.12,3.18 1.27,7.49 -1.91,9.62zm2.07 -9.72c-2.18,-3.26 -6.62,-4.15 -9.89,-1.96 -3.26,2.18 -4.14,6.62 -1.96,9.88 2.19,3.26 6.63,4.14 9.89,1.96 3.26,-2.18 4.14,-6.62 1.96,-9.88z"/>
   <path class="fil0" d="M10.01 13.74c-1.97,1.32 -4.64,0.79 -5.96,-1.18 -1.32,-1.98 -0.79,-4.65 1.19,-5.97 1.97,-1.31 4.64,-0.79 5.96,1.19 1.32,1.97 0.79,4.64 -1.19,5.96zm1.35 -6.07c-1.38,-2.07 -4.17,-2.62 -6.23,-1.24 -2.07,1.38 -2.62,4.17 -1.24,6.24 1.38,2.06 4.17,2.61 6.24,1.23 2.06,-1.38 2.61,-4.17 1.23,-6.23z"/>
   <path class="fil0" d="M2.01 9.78c0.15,0 0.28,0.12 0.28,0.28 0,0.15 -0.13,0.27 -0.28,0.27 -0.15,0 -0.27,-0.12 -0.27,-0.27 0,-0.16 0.12,-0.28 0.27,-0.28z"/>
   <path class="fil0" d="M13.21 9.78c0.15,0 0.27,0.12 0.27,0.28 0,0.15 -0.12,0.27 -0.27,0.27 -0.15,0 -0.28,-0.12 -0.28,-0.27 0,-0.16 0.13,-0.28 0.28,-0.28z"/>
   <path class="fil0" d="M8.19 9.97l-0.01 0.01 0 0.02 -0.02 0 0 0.01 -0.02 0 -0.02 0.01 -0.01 -0.01 -0.02 0.01 -0.01 -0.02 -0.01 0 0 -0.02 -0.02 0 0 -0.02 -0.01 -0.01 0.01 -0.01 -0.01 -0.01 0.02 -0.01 0 -0.02 0.02 0 0 -0.02 0.02 0.01 0.01 -0.01 0.02 0.01 0.02 -0.01 0 0.02 0.02 0 0 0.02 0.02 0 -0.01 0.02 0.02 0.01 -0.01 0.01 0 0.01zm0.46 0.01c0.01,0.06 -0.12,0.06 -0.13,-0.03 0,-0.09 0.13,-0.09 0.13,-0.04 -0.04,0 -0.06,0.01 -0.06,0.04 0,0.03 0.02,0.04 0.06,0.03zm-2.37 -0.15l1.34 0 0 0 0 -1.25 1.36 0 0 1.25 -1.32 0 0 0c0.08,0.26 0.15,0.47 0.21,0.65l0.44 0 0 -0.06c-0.03,0.03 -0.06,0.02 -0.07,-0.01 -0.03,0.02 -0.06,0.02 -0.07,-0.02 -0.02,0.03 -0.06,0.03 -0.07,-0.01 -0.01,0.04 -0.03,0.07 -0.09,0.06 -0.05,0.02 -0.06,0.02 -0.08,0.01 -0.04,0.01 -0.05,0.01 -0.06,0l0.09 -0.32c0.02,-0.06 0.06,-0.09 0.14,-0.07 0.07,0.01 0.06,0.08 0.05,0.13 0.05,0 0.09,0.01 0.14,0.01 0,0 0.01,0 0.01,0 0,0 -0.01,0 -0.01,0 0.02,-0.02 0.03,-0.03 0.04,-0.06l-0.03 0c0.03,-0.02 0.04,-0.03 0.05,-0.05 -0.02,0.02 -0.09,0.05 -0.11,0.02 0,-0.01 0.07,-0.02 0.07,-0.03 0,0 0,0 0,-0.01 -0.03,-0.01 -0.05,0 -0.08,0.01 0,-0.04 0.02,-0.06 0.09,-0.05l0 0c0.14,-0.05 0.11,0 0.16,0.08 -0.01,0 -0.02,-0.01 -0.03,-0.01 0.01,0.03 0.01,0.03 0.03,0.05 -0.01,0 -0.02,0 -0.03,0 0.01,0.02 0.01,0.03 0.03,0.04 -0.01,0 -0.01,0.01 -0.01,0.01 0,0 0,0 0.01,0 0.04,-0.01 0.06,-0.02 0.09,-0.03 -0.02,-0.04 -0.03,-0.1 0.05,-0.12 0.05,-0.01 0.09,0.02 0.11,0.05l0.18 0.35c-0.01,0.01 -0.02,0.01 -0.08,0 -0.02,0.01 -0.03,0.01 -0.07,-0.01 -0.04,0.01 -0.06,0 -0.09,-0.07 -0.01,0.04 -0.03,0.04 -0.06,0.02 -0.01,0.03 -0.04,0.04 -0.07,0.01 0,0.03 -0.03,0.04 -0.06,0.02l0.01 0.07 0.49 0 0 0.1 0 0 0 0.24c0,0.29 -0.43,0.41 -0.66,0.5 -0.24,-0.25 -0.46,-0.64 -0.7,-1.49 -0.08,0.28 -0.16,0.51 -0.23,0.71l-0.06 0 0 -0.06 -0.04 0c0.02,-0.05 0.02,-0.07 0.03,-0.12 0,-0.02 0.03,-0.02 0.03,0 0.02,-0.03 -0.01,-0.06 -0.04,-0.03 -0.01,-0.02 -0.01,-0.03 0,-0.05 0.01,-0.01 0.03,-0.01 0.04,0.01 0.02,-0.01 -0.02,-0.09 -0.07,-0.03 -0.01,-0.01 -0.01,-0.02 -0.01,-0.03 0.02,-0.02 0.03,-0.02 0.03,0 0.03,-0.02 -0.01,-0.07 -0.05,-0.03 -0.03,-0.06 -0.05,-0.19 0.03,-0.21 0.04,-0.01 0.07,0.01 0.09,0.04 0,0.01 0.02,0.04 -0.01,0.04 0.01,0.01 0.01,0.02 0.02,0.02 -0.03,0.02 0.02,0.08 0.02,0.11 0.01,-0.02 0.02,-0.03 0.01,-0.04 0.01,0 0.01,0.01 0.01,0.02 0.02,-0.02 0,-0.04 0,-0.05 0.01,0.01 0.01,0.01 0.01,0.02 0.01,-0.04 0.01,-0.05 0,-0.06 0.01,0 0.01,-0.01 0.02,-0.02 -0.04,0 -0.06,-0.08 -0.11,-0.1 -0.14,-0.05 -0.18,0.09 -0.14,0.2 0.02,0.05 0.05,0.13 0.07,0.17 0.01,0.04 0,0.08 -0.02,0.14l0 0 -0.05 0 0 0.06 -0.06 0c-0.09,-0.08 -0.12,-0.16 -0.18,-0.23 0.02,0.02 0.05,0.03 0.08,0.04 -0.01,-0.02 -0.03,-0.03 -0.03,-0.06 0.03,0.03 0.08,0.03 0.1,0.03 -0.03,-0.03 -0.05,-0.05 -0.05,-0.1 0.02,0.02 0.03,0.03 0.05,0.05 0.03,-0.05 0.01,-0.08 -0.01,-0.12 0.02,0.02 0.02,0.01 0.04,0.02 -0.01,-0.03 0,-0.03 -0.02,-0.05 0.02,0.01 0.01,0 0.03,0 -0.01,-0.02 -0.01,-0.03 -0.03,-0.04 0.02,0 0.02,-0.01 0.02,-0.02 -0.06,-0.02 -0.02,-0.05 -0.09,-0.07 0.02,-0.03 -0.03,-0.06 -0.05,-0.02 -0.01,-0.01 -0.01,-0.01 -0.02,-0.02 0,-0.04 -0.06,-0.04 -0.05,0 -0.04,0.01 -0.05,0.02 -0.07,0.03 0,0.01 0,0.01 0,0.03 -0.03,0.01 -0.05,0.02 -0.08,0.03 -0.01,0 -0.02,0.01 0,0.01 0,0.01 0,0.04 0.01,0.05 0,0.01 0,0.01 0,0 0,0 0.03,-0.02 0.04,-0.02 0,-0.01 0,-0.01 0.01,0 0,0 0.01,0.01 0.01,0.04 -0.11,-0.01 -0.12,-0.01 -0.13,-0.03 -0.01,-0.02 -0.02,-0.02 -0.01,0.01 0,0.01 0.01,0.02 0.13,0.03 -0.01,0.01 -0.02,0.01 -0.04,0.01 0,-0.01 -0.01,-0.01 -0.01,0 0,0 -0.01,0.01 -0.01,0.02 0,0 0,0.01 0,0.01 -0.03,-0.01 -0.05,-0.02 -0.09,-0.01 -0.04,-0.06 -0.1,-0.03 -0.16,-0.13l-0.01 0 0 0 0.02 -0.01 0.02 0.04 0.03 -0.01 -0.02 -0.04c0.08,-0.04 0.13,-0.05 0.23,-0.06 0.03,-0.03 0.05,-0.04 0.08,-0.07 -0.14,-0.01 -0.22,0.03 -0.33,0.1l0 0 -0.02 -0.04 -0.03 0.01 0.02 0.03c-0.01,-0.02 -0.03,-0.03 -0.06,-0.02 -0.02,0 -0.03,0 -0.04,0.02 -0.04,0.01 -0.04,0.07 -0.01,0.08l0 -0.01 0 0.01 -0.01 0 0.01 0.02 0.03 -0.01c0,0.01 0,0.02 0.01,0.03 0.01,-0.01 0.02,-0.01 0.02,-0.02 0.01,0.02 0.01,0.04 0.02,0.06 0.01,-0.01 0.01,-0.01 0.02,-0.02 0,0.03 0,0.04 0.01,0.06 0,-0.01 0.01,-0.02 0.02,-0.02 0,0.03 0,0.04 0.01,0.06 0.01,-0.01 0.01,-0.02 0.01,-0.03 0.01,0.01 0.03,0.03 0.05,0.04 0,0 0.01,0.01 0.01,0.01 -0.01,0.02 -0.02,0.02 -0.04,0.02 0.02,0.02 0.03,0.02 0.06,0.01 -0.01,0.01 -0.02,0.02 -0.03,0.03 0.02,0 0.03,0 0.05,0 -0.05,0.01 -0.08,0.01 -0.13,0.05 0.01,-0.02 0.02,-0.04 0,-0.04 -0.01,0 -0.02,0 -0.03,-0.01 -0.01,0 -0.01,0.02 -0.01,0.03 0,-0.02 0,-0.04 -0.02,-0.03 -0.01,0.01 -0.01,0.01 -0.03,0.01 -0.01,0.01 0,0.01 0,0.02 0.01,0 0.01,0 0.01,0.01 0,0 0,-0.01 -0.01,-0.01 -0.01,-0.01 -0.01,-0.01 -0.02,0 0,0.01 0,0.02 -0.01,0.03 0,0.01 0.01,0.01 0.03,0.01 -0.02,0 -0.03,0 -0.03,0.01 0.01,0.01 0.01,0.02 0.01,0.04 0.02,0.01 0.06,-0.01 0.08,-0.03 0,0.01 0,0.02 0,0.03 0.03,-0.01 0.05,-0.03 0.06,-0.04 0,0.01 0,0.02 0,0.04 0.02,-0.01 0.03,-0.01 0.04,-0.03 0,0.01 0,0.02 -0.01,0.03 0.03,-0.01 0.04,-0.01 0.05,-0.03 0,0.02 0,0.02 0,0.03 0.03,-0.02 0.03,-0.01 0.05,-0.04 0,0.02 0,0.02 0,0.04 0.02,-0.02 0.03,-0.02 0.04,-0.04 0,0 0,0.01 0.01,0.02 0.01,0 0.02,-0.01 0.03,-0.03 0.01,0.01 0,0.02 0,0.03 0.02,-0.01 0.03,-0.01 0.04,-0.03 0.02,0.08 0.12,0.08 0.14,0.13l0 0.04 -0.13 0 0 -0.06 -0.13 0 0 0.06 -0.13 0 0 -0.06 -0.14 0 0 0.06 -0.14 0 0 -0.72zm0.09 -0.22l0 -0.63c0,-0.09 0.07,-0.18 0.18,-0.16 0.09,0.02 0.13,0.06 0.09,0.14 0.05,0.04 0.09,0.05 0.17,0.07 0.01,-0.03 0.03,-0.05 0.05,-0.07 -0.01,0 -0.02,0 -0.03,0 0.02,-0.02 0.05,-0.03 0.06,-0.05 0,-0.02 -0.01,-0.05 -0.03,-0.05 -0.01,0 -0.02,0 -0.03,0l0 0.05 -0.03 0 0 -0.05 0 0 0 -0.02c-0.01,0.01 -0.02,0.02 -0.02,0.03 -0.03,-0.04 -0.01,-0.07 0.02,-0.08 0,-0.03 0,-0.05 0,-0.07 -0.02,0 -0.03,0 -0.05,0 0,-0.01 0,-0.02 0,-0.04 0.02,0.01 0.02,0.01 0.05,0.01 0,-0.02 -0.01,-0.04 -0.01,-0.05 0.02,0 0.03,0 0.05,0 0,0.01 -0.01,0.03 -0.01,0.05 0.02,0 0.03,0 0.05,-0.01 0,0.02 0,0.03 0,0.04 -0.01,0 -0.04,0 -0.05,0 0,0.01 0,0.05 0,0.06 0.01,0 0.01,0 0.02,0l0 0 0 0 0 0c0.02,-0.04 0.09,-0.05 0.13,-0.04 0.06,0.01 0.06,0.08 0.11,0.11 -0.02,0.01 -0.02,0.01 -0.03,0 0.01,0.03 0.02,0.04 0.03,0.06 -0.02,0 -0.02,0 -0.03,0 0.02,0.02 0.03,0.04 0.03,0.06 -0.01,0 -0.01,0 -0.03,0 0.01,0.01 0.03,0.04 0.03,0.06 0.08,-0.01 0.12,-0.01 0.16,-0.04 -0.03,-0.08 -0.04,-0.13 0.07,-0.17 0.08,-0.01 0.2,0.01 0.2,0.18l0 0.59c0,0.05 0,0.07 0.03,0.1 -0.04,-0.01 -0.07,-0.03 -0.11,-0.1 -0.03,0 -0.05,-0.02 -0.08,-0.08 -0.08,-0.02 -0.08,-0.03 -0.08,-0.25 -0.01,0.02 -0.02,0.02 -0.04,0.03 -0.03,-0.01 -0.03,-0.02 -0.04,-0.04 -0.01,0.02 -0.02,0.03 -0.04,0.03 -0.01,-0.01 -0.01,-0.01 -0.03,-0.02 0.03,0.03 0.08,0.11 0.11,0.16 -0.02,0 -0.03,0 -0.05,-0.01 0.04,0.07 0.04,0.09 0.1,0.17 0,0.01 0,0 0.01,0 0.03,0.01 0.04,-0.01 0.06,0.01 0,0 0,0 0,0 0,0 0,0 0,0 0.01,-0.01 0.03,0 0.03,0.03 -0.01,-0.01 -0.01,-0.01 -0.03,-0.01 0,0 0,0 0,0 -0.02,0.01 -0.02,-0.01 -0.05,0 0.02,0.03 0.04,0.02 0.05,0.05 0,0 0,0 0,0l0 0.01c0.01,0.01 0,0.03 -0.01,0.04 0,-0.03 -0.01,-0.02 -0.02,-0.03l0 0c0,0 0,0 -0.01,0 -0.04,-0.03 -0.01,-0.04 -0.03,-0.06 0,0 0,0 -0.01,0 -0.01,0.04 0.02,0.04 -0.01,0.07 0,0 -0.01,0 -0.01,0 0.01,0.01 -0.02,0 -0.02,0.03 -0.03,-0.02 -0.02,-0.03 -0.01,-0.04l0 0c0,0 0,0 -0.01,0 0.01,-0.02 0.03,-0.03 0.04,-0.06 0,0 0,0 0,-0.01 -0.04,0.01 -0.02,0.03 -0.06,0.03 0,0 0,0 0,0 -0.01,0.01 -0.02,0 -0.02,0.02 -0.02,-0.01 -0.01,-0.04 0.01,-0.04 0,0 -0.01,-0.01 0,-0.01 0.01,-0.01 0.02,0 0.05,-0.02 0.01,0 0,0 0,0 -0.03,-0.05 -0.08,-0.11 -0.1,-0.15 0,0.02 -0.01,0.05 -0.02,0.05 -0.03,-0.04 -0.04,-0.06 -0.07,-0.11 -0.01,0 0,0 -0.01,0.01 -0.01,0 -0.02,-0.01 -0.02,-0.01 0.03,0.13 0.04,0.16 0.1,0.27 -0.01,0.01 -0.06,0.03 -0.08,0.04 0.01,0.01 0.02,0.02 0.03,0.04 -0.04,0.02 -0.07,0.03 -0.12,0.05 -0.06,-0.01 -0.08,-0.02 -0.14,-0.05 0.01,-0.02 0.02,-0.03 0.03,-0.05 -0.04,-0.02 -0.06,-0.03 -0.11,-0.05 0.11,-0.13 0.12,-0.14 0.15,-0.25 0,0 -0.01,0 -0.02,0.01 0,-0.01 -0.01,-0.02 -0.01,-0.02 -0.03,0.05 -0.04,0.05 -0.07,0.09 -0.01,-0.01 -0.02,-0.01 -0.02,-0.03 -0.01,0.01 -0.05,0.05 -0.14,0.14 0,0 0,0 0.01,0.01 0.02,0.01 0.04,0 0.05,0.01 0,0.01 0,0.01 0,0.01 0,0 0,0 0,0 0.02,0.01 0.03,0.03 0.01,0.04 0,-0.02 -0.01,-0.01 -0.02,-0.02l0 0c0,0 0,0 0,0 -0.02,0 -0.07,-0.03 -0.07,-0.02 0.02,0.03 0.04,0.04 0.04,0.06 0,0 -0.01,0 0,0 0,0.01 0.02,0.02 -0.01,0.04 0,-0.03 -0.02,-0.02 -0.02,-0.03 0,0 0,0 -0.01,0 -0.02,0 0,-0.03 -0.01,-0.07 -0.01,0 -0.01,0 -0.01,0 -0.02,0.02 0,0.03 -0.03,0.06 -0.01,0 -0.01,0 -0.02,0 0,0.01 -0.01,0 -0.02,0.03 -0.01,-0.01 -0.01,-0.03 0,-0.04 0.01,-0.01 0,-0.01 0,-0.01 0,-0.03 0.03,-0.02 0.05,-0.05 -0.03,0 -0.03,0.01 -0.05,0l0 0c-0.02,0 -0.02,0 -0.03,0.01 -0.01,-0.03 0.01,-0.04 0.03,-0.03l0 0 0 0c0.02,-0.02 0.03,0 0.06,0 0.01,0 0.01,0 0.01,-0.01 0.03,-0.02 0.12,-0.13 0.14,-0.16 -0.02,0.01 -0.03,0.01 -0.05,0 0.02,-0.03 0.06,-0.1 0.09,-0.15 0,0 -0.01,0.02 -0.03,0.03 -0.02,-0.01 -0.02,-0.02 -0.03,-0.03 -0.02,0.02 -0.02,0.02 -0.04,0.03 -0.02,-0.01 -0.03,-0.01 -0.04,-0.03 -0.01,0.09 -0.02,0.17 -0.08,0.21 -0.02,0.05 -0.03,0.08 -0.09,0.1 -0.01,0.05 -0.05,0.09 -0.11,0.11 0.02,-0.02 0.02,-0.04 0.03,-0.06zm0.13 -0.95l0.02 -0.01 0 -0.02 0.02 0 0 -0.02 0.02 0.01 0.02 -0.02 0.01 0.02 0.02 -0.01 0.01 0.02 0.01 0 0.01 0.02 0.02 0.01 -0.01 0.02 0.02 0.01 -0.02 0.01 0.01 0.02 -0.01 0.01 0 0.01 -0.02 0 -0.01 0.02 -0.02 -0.01 -0.02 0.02 -0.01 -0.02 -0.02 0.01 -0.01 -0.01 -0.02 0 0.01 -0.02 -0.02 -0.01 0 -0.02 -0.02 -0.01 0.02 -0.01 -0.01 -0.02zm0.64 -0.02c0,-0.04 0.16,-0.06 0.17,0.05 -0.01,0.11 -0.17,0.09 -0.17,0.04 0.05,0.03 0.08,-0.01 0.08,-0.04 0,-0.03 -0.04,-0.06 -0.08,-0.05zm1 2.7c-0.04,0 -0.12,0.01 -0.16,-0.04 -0.06,0.05 -0.13,0.07 -0.19,0.05l0 0c-0.04,0.04 -0.09,0.02 -0.04,-0.01 -0.04,-0.01 -0.09,-0.03 -0.09,-0.07 0,-0.01 0.02,-0.02 0.04,0l0 0c0.02,-0.02 0.01,-0.01 0.03,-0.03 -0.08,-0.08 0.12,-0.15 0.07,-0.19 -0.02,-0.01 -0.04,0.01 -0.06,0.03 -0.02,-0.04 0.01,-0.07 0.07,-0.07 -0.02,-0.05 -0.06,-0.12 -0.09,-0.17 -0.04,-0.04 -0.06,-0.12 -0.05,-0.21 0.04,-0.17 0.01,-0.14 0,-0.19 -0.02,-0.06 0,-0.08 0.05,-0.11 -0.03,0.06 0.1,0.09 0.05,0.18 0.14,0.02 0.05,0.15 0.09,0.21 -0.11,-0.04 -0.05,-0.12 -0.11,-0.12 -0.04,0 0.11,0.2 0.11,0.22 0,-0.01 0.01,-0.01 0.03,-0.02 0,0 0.01,-0.01 0.03,-0.01 -0.01,0.05 -0.01,0.06 0,0.1 0.04,0.05 0.07,0.1 0.09,0.14 0.03,0.05 0.03,0.15 -0.01,0.23 0.04,-0.03 0.06,-0.03 0.1,-0.05 0,0.02 0,0.03 0,0.04 0.02,0 0.03,0 0.06,0.02 -0.03,0.01 -0.05,0.02 -0.06,0.03 0.01,0 0.03,0.02 0.04,0.04zm-0.63 0c0.04,0.03 0,0.05 -0.03,0.01l0 0 -0.01 0c-0.06,0.02 -0.13,0 -0.19,-0.05 -0.05,0.05 -0.12,0.05 -0.18,0.05 0.01,-0.02 0.03,-0.04 0.05,-0.04 -0.01,-0.02 -0.03,-0.03 -0.05,-0.03 0.02,-0.02 0.03,-0.02 0.06,-0.03 -0.01,-0.01 -0.01,-0.02 0,-0.04 0.03,0.02 0.05,0.02 0.1,0.05 -0.04,-0.08 -0.04,-0.18 -0.01,-0.23 0.01,-0.04 0.06,-0.1 0.11,-0.16l-0.02 0.02c0.01,-0.04 0.01,-0.05 0,-0.1 0.02,0 0.02,0.01 0.04,0.01 0.01,0.01 0.02,0.01 0.02,0.02 0.1,-0.12 0.18,-0.22 0.12,-0.22 -0.07,0 0,0.08 -0.12,0.12 0.05,-0.06 -0.05,-0.19 0.1,-0.21 -0.05,-0.09 0.08,-0.12 0.05,-0.18 0.05,0.03 0.07,0.05 0.05,0.11 -0.01,0.05 -0.04,0.02 -0.01,0.19 0.02,0.09 -0.01,0.17 -0.04,0.21 -0.04,0.05 -0.08,0.12 -0.1,0.17 0.06,0 0.09,0.03 0.07,0.07 -0.01,-0.02 -0.03,-0.04 -0.05,-0.03 -0.05,0.04 0.15,0.11 0.07,0.19 0.01,0.02 0.01,0.01 0.03,0.03l0 0c0.02,-0.02 0.04,-0.02 0.05,0 0,0.04 -0.07,0.06 -0.11,0.07zm-0.56 -0.28l0 0 0 -0.21 0.04 -0.06 0.09 -0.04 0.08 0.03 0.04 0.07 0.02 0.07c-0.03,0.06 -0.07,0.12 -0.1,0.17 -0.02,-0.01 -0.04,-0.02 -0.05,-0.03 -0.03,0.04 -0.09,0.03 -0.12,0zm-0.26 0l0 0c-0.05,0.02 -0.1,0.02 -0.13,-0.02 -0.05,0.04 -0.09,0.04 -0.14,0.02l0 0 0 -0.22 0.06 -0.07 0.08 -0.02 0.08 0.03 0.05 0.07 0 0.21zm-0.18 0.19c0.37,0.12 0.74,0.24 1.11,0.37 0.41,-0.12 1.37,-0.37 1.43,-0.71l0 0c0,-0.02 0.01,-0.06 0,-0.08l0 -2.34 -2.85 0 0 2.43c0,0.01 0,0.01 0,0.02 0.02,0.16 0.17,0.24 0.31,0.31z"/>
   <polygon class="fil0" points="8.15,10.77 8.18,10.77 8.18,10.81 8.24,10.81 8.24,10.74 8.21,10.74 8.21,10.7 8.24,10.7 8.24,10.64 8.21,10.64 8.21,10.67 8.18,10.67 8.18,10.64 8.15,10.64 8.15,10.67 8.12,10.67 8.12,10.64 8.08,10.64 8.08,10.7 8.12,10.7 8.12,10.74 8.08,10.74 8.08,10.81 8.15,10.81 "/>
   <path class="fil0" d="M9.13 10.91c0.01,0.36 -0.54,0.45 -1.51,0.81 -0.92,-0.31 -1.47,-0.39 -1.49,-0.74l0 -2.55 3 0 0 2.48zm-2.19 -3.96l0 -0.06c0.12,-0.01 0.25,0.04 0.32,0.05l0.04 0.1c-0.1,-0.04 -0.25,-0.09 -0.36,-0.09zm0.54 -0.28c0,0 0,0 0,0 0.02,0.05 -0.02,0.11 -0.07,0.12 -0.06,0.01 -0.11,-0.02 -0.12,-0.07 0,-0.01 0,-0.01 0,-0.01l0.19 -0.04zm1.28 5.1c0,0 0,0.01 0,0.01l0 -0.01 0 0zm0.01 0c0,0.01 0,0.01 0,0.02 0,-0.01 0,-0.01 -0.01,-0.02 0.01,0 0.01,0 0.01,0zm1.61 -2.21c0.01,0 0.08,0.05 0.1,0.05 -0.09,-0.27 -0.07,-0.65 -0.06,-1.07 0.02,0.01 0.08,0.05 0.11,0.07 -0.02,-0.24 -0.02,-0.3 -0.02,-0.43 0,-0.84 -0.44,-1.07 -0.78,-1.16 -0.61,-0.14 -1.03,0.34 -0.89,0.86 -0.03,0.16 -0.12,0.28 -0.27,0.35 -0.12,0.04 -0.3,0.05 -0.37,-0.09 0.03,0.02 0.06,0.03 0.1,0.03 -0.04,-0.04 -0.06,-0.09 -0.08,-0.16 -0.03,-0.11 -0.05,-0.24 -0.11,-0.36 0.06,0.06 0.09,0.12 0.11,0.18 0.04,-0.16 -0.01,-0.36 -0.08,-0.44 0.06,0.03 0.06,0.02 0.1,0.07 0.01,-0.09 0,-0.13 -0.03,-0.18 0,-0.13 -0.01,-0.17 -0.07,-0.24 0.06,0.02 0.1,0.02 0.16,-0.01 -0.09,-0.03 -0.14,-0.08 -0.2,-0.16 -0.07,-0.12 -0.19,-0.25 -0.34,-0.3 -0.12,-0.03 -0.22,-0.03 -0.42,0.01 -0.06,0.01 -0.2,0.05 -0.33,0.05l0.01 0.06 -0.06 0.02c-0.01,0 -0.02,0.01 -0.02,0.01l0 -0.07 0 0 0 -0.01 0 -0.02 0 -0.12c0.09,0.01 0.16,0.01 0.25,0.02l0 -0.17c-0.09,0.01 -0.18,0.02 -0.27,0.03 0.01,-0.09 0.02,-0.16 0.04,-0.25 -0.06,0.01 -0.12,0.01 -0.18,0 0.02,0.09 0.02,0.16 0.03,0.25 -0.08,-0.01 -0.17,-0.02 -0.25,-0.03l0.01 0.17c0.03,0 0.19,-0.01 0.24,-0.01l0 0.24c-0.09,0.03 -0.17,0.09 -0.09,0.26 0.02,-0.06 0.04,-0.09 0.09,-0.11 0,0.27 0.02,0.57 -0.04,0.83 0.09,-0.03 0.12,-0.03 0.22,0 -0.06,-0.23 -0.06,-0.48 -0.05,-0.71 0.01,0 0.02,0 0.03,0 0.14,0.02 0.28,0.07 0.32,0.23 0.04,0.15 -0.08,0.23 -0.14,0.34 -0.12,0.24 -0.08,0.44 -0.19,0.56 0.04,0.01 0.08,0 0.08,0 -0.09,0.12 -0.26,0.12 -0.39,0.08 -0.1,-0.03 -0.2,-0.16 -0.25,-0.3 0.19,-0.62 -0.45,-1.02 -0.91,-0.88 -0.25,0.07 -0.73,0.23 -0.75,1.17 -0.01,0.14 0.01,0.22 -0.02,0.36 0.04,-0.01 0.06,-0.02 0.09,-0.04 0,0.39 0,0.91 -0.08,1.08 0.05,-0.01 0.08,-0.03 0.1,-0.05 0.04,1.61 0.06,2.8 -0.06,3.08 0.18,-0.06 0.26,-0.08 0.36,-0.21 0.04,0 0.09,-0.01 0.13,-0.02l0 -1.98c-0.07,-0.29 -0.15,-0.58 -0.22,-0.88 -0.02,-0.11 -0.03,-0.19 0,-0.3l0.04 -0.12 0.09 0.08c0.04,0.04 0.07,0.07 0.09,0.1l0 -1.23c0,-0.02 0.02,-0.04 0.05,-0.04 0.02,0 0.04,0.02 0.04,0.04l0 1.4c0.2,0.58 0.35,1.17 0.5,1.76l0 -3.41c0,-0.02 0.02,-0.04 0.05,-0.04 0.02,0 0.04,0.02 0.04,0.04l0 3.74c0.01,0.04 0.02,0.07 0.03,0.11 0.09,-0.11 0.14,-0.24 0.17,-0.42 0.05,0.08 0.15,0.14 0.28,0.2 -0.11,0.19 -0.12,0.24 -0.3,0.33 0.13,0.06 0.26,0.07 0.37,0 0,0.01 0,0.01 -0.01,0.02 -0.03,0.06 -0.06,0.12 -0.09,0.17 -0.04,0.07 -0.07,0.1 -0.11,0.15 -0.1,0.03 -0.14,-0.01 -0.25,0.01 0,0 0,0 -0.01,0 0,-0.02 -0.01,-0.03 0,-0.04 0.01,0 0.02,-0.01 0.02,-0.02 0.02,0 0.04,-0.01 0.05,-0.02 0.02,0 0.03,-0.01 0.04,-0.02l0.14 -0.05c0.02,0.01 0.04,0.02 0.05,0 0.05,-0.02 0.06,-0.04 0.07,-0.06 -0.02,-0.02 -0.05,-0.04 -0.1,-0.02 -0.02,-0.01 -0.03,0.01 -0.04,0.02l-0.15 0.05c-0.01,-0.01 -0.03,-0.01 -0.04,0 -0.02,-0.01 -0.04,-0.01 -0.05,0.01 -0.01,-0.01 -0.03,-0.02 -0.04,-0.01 -0.22,-0.8 -0.42,-1.7 -0.7,-2.48 -0.03,-0.1 -0.07,-0.16 -0.15,-0.23 -0.03,0.1 -0.03,0.16 0,0.27 0.19,0.79 0.44,1.7 0.65,2.49 0,0 -0.03,0.02 -0.04,0.03 -0.01,-0.01 -0.04,0.01 -0.04,0.02 -0.02,0 -0.04,0.01 -0.04,0.02l-0.14 0.05c-0.02,-0.01 -0.04,-0.02 -0.05,0 -0.04,0 -0.07,0.04 -0.07,0.06 0.01,0.02 0.05,0.04 0.1,0.02 0.01,0 0.03,-0.01 0.04,-0.03l0.14 -0.04c0.01,0.01 0.03,0.01 0.05,0 0.01,0.01 0.04,0.01 0.05,0 0.01,0.01 0.02,0.01 0.04,0 0,0 0.01,0 0.01,0 0,0.01 0.01,0.03 0.02,0.06 -0.1,0.04 -0.11,0.08 -0.09,0.13 0,0 0.01,0.01 0.01,0.02 -0.05,0.01 -0.09,0.08 -0.07,0.13 0.01,0.02 0.02,0.04 0.04,0.05l0 0 0 0c-0.03,0.05 -0.06,0.12 0.05,0.14 -0.02,0.09 0.04,0.08 0.08,0.1 0.02,0.02 0.04,0.02 0.07,0.03 0.06,0.01 0.09,0.02 0.14,0.04 0.04,0.02 0.08,0.01 0.12,-0.01 0.02,-0.01 0.03,-0.02 0.04,-0.04 0.06,-0.03 0.07,-0.04 0.08,-0.11 0.06,-0.08 0.11,-0.27 0.12,-0.31 0.06,-0.18 0.15,-0.32 0.26,-0.47 -0.02,0.12 0.01,0.27 0.11,0.34 0.01,-0.27 0.12,-0.4 0.24,-0.59 0.04,0.01 0.07,0.03 0.11,0.04 -0.09,0.3 -0.16,0.54 -0.3,0.76l0.01 0c-0.11,0.18 -0.25,0.35 -0.47,0.55 0.08,0.07 0.19,0.14 0.28,0.23 -0.03,0.04 -0.05,0.06 -0.09,0.1 0.07,0.03 0.32,0.19 0.39,0.24 -0.02,0.05 -0.05,0.08 -0.09,0.14 0.28,0.18 0.43,0.25 0.72,0.42 0,0 0.47,-0.23 0.76,-0.4 -0.02,-0.04 -0.05,-0.08 -0.08,-0.13 0.16,-0.09 0.29,-0.18 0.42,-0.26 -0.04,-0.04 -0.06,-0.06 -0.09,-0.11 0.16,-0.11 0.17,-0.12 0.29,-0.21 -0.49,-0.46 -0.66,-0.83 -0.85,-1.36 0.05,-0.02 0.11,-0.03 0.16,-0.05 0.14,0.21 0.22,0.29 0.28,0.58 0.1,-0.1 0.08,-0.2 0.09,-0.34 0,0 0,0.01 0.01,0.01 0,0 0,0 0,0 -0.01,0 -0.01,0 -0.01,0 0,0 0,0 0,0 0,0 0,0 0,-0.01 0.11,0.19 0.18,0.29 0.26,0.44 0.01,0.09 0.02,0.13 0.03,0.18 0.01,0 0.01,0 0.01,0 0.01,0.03 0.03,0.06 0.08,0.11 0,0.06 0.05,0.12 0.09,0.14 0,0.01 0.01,0.02 0.02,0.03 0.03,0.04 0.12,0.04 0.17,0.03 0.04,-0.03 0.06,-0.03 0.1,-0.04 0.03,0 0.03,-0.01 0.08,-0.01 0.03,-0.02 0.06,-0.03 0.08,-0.04 0.03,-0.02 0.02,-0.07 0,-0.09 0.05,-0.03 0.12,-0.07 0.05,-0.12 0,-0.01 0,-0.01 -0.01,-0.01 0.03,-0.06 0.03,-0.12 -0.01,-0.16 0,-0.09 -0.05,-0.13 -0.11,-0.19 0,0 0,0 0,0 0.12,-0.41 0.24,-0.93 0.37,-1.41 0.05,0.01 0.06,-0.02 0.07,-0.05 0.04,-0.01 0.05,-0.04 0.02,-0.07 0.05,-0.03 0.05,-0.06 0.04,-0.1 0.15,-0.17 0.26,-0.29 0.28,-0.35 0.02,-0.06 -0.03,-0.19 -0.08,-0.37 0,-0.02 0.01,-0.07 -0.04,-0.08 0,-0.01 0,-0.01 -0.01,-0.01 0.02,-0.01 0.03,-0.03 0.03,-0.05 0,-0.03 -0.02,-0.05 -0.05,-0.05 -0.03,0 -0.06,0.02 -0.06,0.05 0,0.01 0.01,0.02 0.01,0.02 -0.01,0.01 -0.02,0.01 -0.03,0.02 -0.05,-0.01 -0.08,0.03 -0.09,0.05 -0.12,0.13 -0.24,0.23 -0.26,0.29 -0.01,0.05 -0.01,0.19 0.03,0.41 -0.05,0.02 -0.05,0.06 -0.02,0.1 -0.05,0.02 -0.05,0.05 -0.03,0.08 0,0.03 0.01,0.06 0.03,0.07 -0.11,0.46 -0.23,0.86 -0.4,1.4 -0.04,-0.01 -0.18,0.01 -0.27,-0.02 -0.09,-0.13 -0.14,-0.21 -0.19,-0.31 0.13,0.04 0.18,0.03 0.33,0 -0.17,-0.1 -0.23,-0.14 -0.34,-0.32 0.14,-0.06 0.24,-0.12 0.3,-0.21 0.04,0.21 0.1,0.32 0.22,0.41 0.02,-0.04 0.03,-0.07 0.04,-0.11l0 -3.67c0,-0.03 0.02,-0.05 0.04,-0.05 0.02,0 0.04,0.02 0.04,0.05l0 3.37c0.05,-0.17 0.1,-0.34 0.14,-0.51 -0.01,-0.03 -0.02,-0.06 -0.02,-0.08 -0.02,-0.05 -0.01,-0.09 0.01,-0.12 0,-0.04 0.01,-0.08 0.04,-0.11 -0.02,-0.08 -0.03,-0.16 -0.03,-0.23 -0.01,-0.05 -0.01,-0.11 0,-0.16l0 -0.01 0 -0.01c0.02,-0.05 0.08,-0.1 0.12,-0.14 0.05,-0.05 0.1,-0.1 0.16,-0.16 0.01,-0.04 0.05,-0.07 0.09,-0.08l0 -1.51c0,-0.03 0.02,-0.05 0.04,-0.05 0.03,0 0.05,0.02 0.05,0.05l0 1.42c0.01,0 0.03,-0.01 0.05,-0.01 0.07,0 0.13,0.06 0.13,0.13 0,0.01 0,0.02 -0.01,0.03 0.02,0.01 0.02,0.03 0.03,0.05 0,0.02 0,0.04 0,0.05 0.02,0.08 0.04,0.15 0.06,0.22 0.01,0.05 0.03,0.12 0.02,0.18l0 0 0 0c-0.02,0.06 -0.07,0.12 -0.11,0.16 -0.05,0.07 -0.11,0.13 -0.17,0.2 0.01,0.02 0,0.04 0,0.05l0 1.73c0.06,0.04 0.12,0.06 0.17,0.06 0.11,0.09 0.17,0.12 0.32,0.15 -0.18,-0.21 -0.11,-1.72 -0.11,-2.98z"/>
   <path class="fil0" d="M5.5 12.07l0.1 -0.02c0.01,-0.02 0.03,-0.03 0.05,-0.03 0.01,-0.01 0.02,-0.01 0.03,-0.02 -0.11,-0.41 -0.22,-0.82 -0.33,-1.23l0 1.37c0.02,-0.03 0.05,-0.05 0.08,-0.05 0.02,-0.02 0.05,-0.02 0.07,-0.02z"/>
   <path class="fil0" d="M9.85 10.81c-0.03,0.14 -0.07,0.27 -0.1,0.4 -0.06,0.24 -0.12,0.48 -0.19,0.72 0.08,0.08 0.16,0.16 0.23,0.18 0.03,0.06 0.07,0.11 0.12,0.15l0 -1.49c-0.02,0.02 -0.03,0.03 -0.06,0.04z"/>
   <polygon class="fil0" points="8.6,10.77 8.63,10.77 8.63,10.81 8.69,10.81 8.69,10.74 8.66,10.74 8.66,10.7 8.69,10.7 8.69,10.64 8.66,10.64 8.66,10.67 8.63,10.67 8.63,10.64 8.6,10.64 8.6,10.67 8.57,10.67 8.57,10.64 8.54,10.64 8.54,10.7 8.57,10.7 8.57,10.74 8.54,10.74 8.54,10.81 8.6,10.81 "/>
   <polygon class="fil0" points="8.46,10.86 8.43,10.86 8.43,10.92 8.46,10.92 8.46,10.96 8.43,10.96 8.43,11.04 8.49,11.04 8.49,10.99 8.52,10.99 8.52,11.04 8.58,11.04 8.58,10.96 8.55,10.96 8.55,10.92 8.58,10.92 8.58,10.86 8.55,10.86 8.55,10.89 8.52,10.89 8.52,10.86 8.49,10.86 8.49,10.89 8.46,10.89 "/>
   <polygon class="fil0" points="8.23,10.86 8.2,10.86 8.2,10.92 8.23,10.92 8.23,10.96 8.2,10.96 8.2,11.04 8.26,11.04 8.26,10.99 8.29,10.99 8.29,11.04 8.35,11.04 8.35,10.96 8.32,10.96 8.32,10.92 8.35,10.92 8.35,10.86 8.32,10.86 8.32,10.89 8.29,10.89 8.29,10.86 8.26,10.86 8.26,10.89 8.23,10.89 "/>
   <polygon class="fil0" points="8.38,10.77 8.41,10.77 8.41,10.81 8.46,10.81 8.46,10.74 8.44,10.74 8.44,10.7 8.46,10.7 8.46,10.64 8.44,10.64 8.44,10.67 8.41,10.67 8.41,10.64 8.38,10.64 8.38,10.67 8.34,10.67 8.34,10.64 8.31,10.64 8.31,10.7 8.34,10.7 8.34,10.74 8.31,10.74 8.31,10.81 8.38,10.81 "/>
   <polygon class="fil0" points="8.68,10.86 8.65,10.86 8.65,10.92 8.68,10.92 8.68,10.96 8.65,10.96 8.65,11.04 8.72,11.04 8.72,10.99 8.75,10.99 8.75,11.04 8.81,11.04 8.81,10.96 8.78,10.96 8.78,10.92 8.81,10.92 8.81,10.86 8.78,10.86 8.78,10.89 8.75,10.89 8.75,10.86 8.72,10.86 8.72,10.89 8.68,10.89 "/>
   <polygon class="fil0" points="8.83,10.77 8.86,10.77 8.86,10.81 8.92,10.81 8.92,10.74 8.89,10.74 8.89,10.7 8.92,10.7 8.92,10.64 8.89,10.64 8.89,10.67 8.86,10.67 8.86,10.64 8.83,10.64 8.83,10.67 8.8,10.67 8.8,10.64 8.77,10.64 8.77,10.7 8.8,10.7 8.8,10.74 8.77,10.74 8.77,10.81 8.83,10.81 "/>
   <path class="fil0" d="M7.95 9.23c0.03,0 0.05,-0.01 0.11,-0.03 -0.01,0.02 0,0.05 0.01,0.06 0,0.03 0,0.04 0.02,0.06 0,0.02 0,0.03 0.01,0.04 0.01,0.07 0.03,0.1 0.07,0.18 -0.03,0.02 -0.06,0.04 -0.06,0.08 0,0.06 0.06,0.08 0.11,0.08 0.02,0.04 0.04,0.05 0.07,0.05 0.03,0 0.06,-0.01 0.08,-0.05 0.04,0 0.11,-0.02 0.11,-0.08 0,-0.04 -0.03,-0.06 -0.06,-0.08 0.04,-0.08 0.06,-0.11 0.07,-0.18 0.01,-0.01 0.01,-0.02 0.01,-0.04 0.02,-0.02 0.02,-0.03 0.02,-0.06 0.01,-0.01 0.02,-0.04 0.01,-0.06 0.06,0.02 0.08,0.03 0.12,0.03 0.12,0 0.15,-0.05 0.19,-0.11 -0.11,0.02 -0.14,-0.07 -0.24,-0.07 0.04,0 0.08,-0.07 0.08,-0.18 0,-0.12 -0.11,-0.26 -0.23,-0.26 0.09,0.04 0.12,0.13 0.12,0.21 -0.01,0.1 -0.05,0.12 -0.09,0.15 -0.05,-0.03 -0.08,-0.02 -0.13,0.03 -0.01,-0.03 -0.03,-0.04 -0.06,-0.04 -0.02,0 -0.04,0.01 -0.05,0.04 -0.05,-0.05 -0.08,-0.06 -0.13,-0.03 -0.04,-0.03 -0.08,-0.05 -0.09,-0.15 0,-0.08 0.03,-0.17 0.12,-0.21 -0.12,0 -0.23,0.14 -0.23,0.26 0,0.11 0.04,0.18 0.08,0.18 -0.1,0 -0.12,0.09 -0.24,0.07 0.04,0.06 0.07,0.11 0.2,0.11z"/>
   <polygon class="fil0" points="8.21,8.9 8.29,8.86 8.38,8.9 8.37,8.81 8.43,8.74 8.34,8.73 8.29,8.64 8.25,8.73 8.15,8.74 8.23,8.81 "/>
   <path class="fil0" d="M7.83 9.58c-0.08,0.02 -0.07,0.03 -0.07,0.05 0,0.01 0.02,0.01 0.03,0.03 0.02,0.01 0.02,0.03 0.04,0.03 0.03,-0.01 0.04,-0.01 0.04,-0.08 0,0.07 0.02,0.07 0.04,0.07 0.02,0 0.02,-0.01 0.04,-0.02 0.02,-0.02 0.03,-0.01 0.04,-0.03 -0.01,-0.02 0.01,-0.03 -0.08,-0.05 0.08,0.02 0.09,0.01 0.1,-0.01 0.01,-0.01 -0.02,-0.03 -0.02,-0.04 0,-0.02 0,-0.03 -0.01,-0.04 -0.02,-0.01 -0.03,-0.02 -0.08,0.04 0.05,-0.06 0.04,-0.07 0.02,-0.08 -0.02,-0.02 -0.03,0 -0.05,0 -0.03,0 -0.03,-0.01 -0.05,0 -0.01,0.01 -0.03,0.02 0.03,0.08 -0.06,-0.06 -0.06,-0.04 -0.08,-0.04 -0.02,0.01 -0.01,0.02 -0.02,0.04 0,0.02 -0.02,0.02 -0.01,0.04 0.01,0.02 0.01,0.03 0.09,0.01z"/>
   <path class="fil0" d="M8.84 9.51c0,-0.09 -0.24,-0.09 -0.24,0.08 0.01,0.16 0.24,0.15 0.25,0.05 -0.07,0.04 -0.14,0 -0.14,-0.05 0,-0.06 0.07,-0.11 0.13,-0.08z"/>
   <path class="fil2" d="M3.22 7.8c0.05,-0.11 0.08,-0.2 0.1,-0.32l-0.26 -0.14c-0.05,-0.02 -0.08,-0.02 -0.11,0.02l-0.08 0.11 -0.11 -0.06 0.24 -0.47 0.12 0.06 -0.03 0.08c-0.01,0.06 0,0.07 0.05,0.1l0.35 0.18c-0.01,0.12 -0.02,0.33 -0.14,0.55 -0.22,0.42 -0.57,0.46 -1.03,0.23 -0.42,-0.22 -0.65,-0.59 -0.41,-1.04 0.06,-0.14 0.14,-0.27 0.35,-0.41l0.31 0.2 -0.07 0.14 -0.24 -0.07c-0.1,0.07 -0.16,0.13 -0.24,0.27 -0.08,0.16 -0.07,0.25 -0.04,0.34 0.04,0.11 0.28,0.29 0.43,0.37 0.33,0.17 0.65,0.17 0.81,-0.14z"/>
   <path class="fil2" d="M4.31 5.89c0.28,0.28 0.16,0.6 -0.05,0.8 -0.26,0.25 -0.52,0.23 -0.76,-0.02l-0.6 -0.62c-0.04,-0.04 -0.06,-0.04 -0.1,-0.01l-0.1 0.07 -0.1 -0.1 0.41 -0.39 0.09 0.1 -0.07 0.09c-0.04,0.05 -0.03,0.07 0.01,0.11l0.57 0.59c0.22,0.23 0.43,0.15 0.58,0 0.06,-0.06 0.12,-0.15 0.12,-0.23 0,-0.08 -0.04,-0.17 -0.17,-0.3l-0.56 -0.58c-0.04,-0.04 -0.06,-0.05 -0.1,-0.02l-0.1 0.07 -0.1 -0.09 0.4 -0.39 0.09 0.1 -0.07 0.09c-0.03,0.05 -0.02,0.07 0.01,0.11l0.6 0.62z"/>
   <path class="fil2" d="M5.63 5.73l-0.15 0.07 -1.05 -1.03c-0.06,-0.06 -0.11,-0.04 -0.16,-0.03l-0.08 0.03 -0.05 -0.12 0.54 -0.26 0.06 0.12 -0.1 0.06c-0.04,0.02 -0.06,0.04 -0.04,0.07 0,0.01 0.01,0.02 0.03,0.04l0.81 0.82 -0.18 -1.13c0,-0.02 -0.01,-0.03 -0.01,-0.04 -0.01,-0.03 -0.04,-0.03 -0.08,-0.02l-0.12 0.04 -0.05 -0.11 0.5 -0.25 0.06 0.12 -0.07 0.05c-0.05,0.03 -0.07,0.05 -0.06,0.13l0.2 1.44z"/>
   <path class="fil2" d="M6.33 5.44l-0.02 -0.13 0.11 -0.04c0.06,-0.02 0.06,-0.04 0.05,-0.09l-0.17 -1.14c-0.01,-0.05 -0.02,-0.08 -0.08,-0.08l-0.12 0.01 -0.02 -0.13 1.14 -0.17 0.05 0.38 -0.14 0.02 -0.04 -0.15c-0.01,-0.05 -0.04,-0.06 -0.09,-0.05l-0.52 0.08 0.08 0.52 0.52 -0.08 0.03 0.16 -0.52 0.08 0.09 0.59 0.51 -0.08c0.06,0 0.08,-0.02 0.08,-0.07l-0.01 -0.17 0.14 -0.03 0.08 0.4 -1.15 0.17z"/>
   <path class="fil2" d="M8.21 4.43l0.2 0.03c0.08,0.01 0.15,0.02 0.22,-0.02 0.07,-0.05 0.11,-0.1 0.13,-0.23 0.02,-0.2 -0.11,-0.29 -0.31,-0.32l-0.16 -0.02 -0.08 0.56zm-0.09 0.65c-0.01,0.06 0,0.08 0.06,0.1l0.14 0.03 -0.02 0.14 -0.59 -0.08 0.02 -0.14 0.12 0c0.06,0 0.07,-0.02 0.08,-0.07l0.16 -1.13c0,-0.06 0,-0.08 -0.06,-0.1l-0.11 -0.03 0.02 -0.14 0.58 0.09c0.31,0.04 0.5,0.16 0.45,0.47 -0.04,0.31 -0.31,0.37 -0.46,0.37 0.05,0.02 0.09,0.09 0.13,0.16l0.19 0.42c0.05,0.09 0.1,0.13 0.16,0.14 0.02,0 0.07,0 0.08,-0.01l-0.03 0.12c-0.02,0.02 -0.09,0.04 -0.18,0.03 -0.12,-0.02 -0.19,-0.12 -0.24,-0.23l-0.23 -0.51c-0.02,-0.05 -0.05,-0.1 -0.12,-0.11l-0.08 -0.01 -0.07 0.49z"/>
   <path class="fil2" d="M9.72 5.49c-0.03,0.05 -0.03,0.07 0.02,0.1l0.09 0.08 -0.06 0.11 -0.49 -0.26 0.06 -0.12 0.11 0.04c0.06,0.02 0.07,0 0.1,-0.05l0.55 -1c0.03,-0.05 0.03,-0.07 -0.02,-0.11l-0.09 -0.07 0.06 -0.11 0.33 0.18 0.11 1.49 0.49 -0.9c0.02,-0.05 0.03,-0.07 -0.01,-0.11l-0.1 -0.06 0.06 -0.12 0.49 0.26 -0.06 0.12 -0.11 -0.04c-0.06,-0.02 -0.08,0 -0.1,0.04l-0.66 1.22 -0.18 -0.1 -0.1 -1.49 -0.49 0.9z"/>
   <path class="fil2" d="M11.91 6.84c-0.29,0.28 -0.61,0.16 -0.8,-0.05 -0.25,-0.25 -0.23,-0.52 0.02,-0.76l0.62 -0.59c0.04,-0.04 0.05,-0.06 0.01,-0.11l-0.06 -0.1 0.09 -0.09 0.39 0.4 -0.09 0.09 -0.1 -0.07c-0.05,-0.03 -0.07,-0.02 -0.11,0.01l-0.59 0.57c-0.23,0.22 -0.15,0.43 0,0.58 0.06,0.07 0.15,0.12 0.23,0.12 0.07,0.01 0.16,-0.04 0.3,-0.17l0.58 -0.55c0.04,-0.04 0.05,-0.06 0.02,-0.11l-0.07 -0.1 0.1 -0.09 0.38 0.4 -0.1 0.09 -0.09 -0.07c-0.05,-0.04 -0.07,-0.03 -0.11,0.01l-0.62 0.59z"/>
   <path class="fil2" d="M11.74 7.52l0.12 -0.06 0.07 0.1c0.04,0.04 0.06,0.04 0.11,0.01l1.01 -0.51c0.05,-0.03 0.07,-0.04 0.05,-0.1l-0.03 -0.11 0.11 -0.06 0.26 0.51 -0.11 0.06 -0.08 -0.11c-0.04,-0.05 -0.06,-0.04 -0.11,-0.02l-1.08 0.55 0.2 0.4c0.03,0.05 0.05,0.07 0.1,0.05l0.15 -0.07 0.07 0.14 -0.35 0.19 -0.49 -0.97z"/>
   <path class="fil2" d="M2.47 12.39l0.09 0.18c0.04,0.08 0.07,0.14 0.15,0.18 0.08,0.04 0.15,0.03 0.26,-0.02 0.19,-0.09 0.19,-0.25 0.1,-0.44l-0.07 -0.16 -0.53 0.26zm-0.61 0.29c-0.05,0.02 -0.06,0.04 -0.04,0.1l0.04 0.14 -0.12 0.06 -0.26 -0.55 0.12 -0.06 0.07 0.1c0.03,0.05 0.06,0.05 0.11,0.03l1.06 -0.51c0.05,-0.03 0.06,-0.04 0.05,-0.1l-0.04 -0.12 0.13 -0.06 0.26 0.55c0.14,0.29 0.14,0.52 -0.15,0.66 -0.29,0.14 -0.5,-0.06 -0.58,-0.19 0.01,0.05 -0.02,0.13 -0.07,0.2l-0.25 0.4c-0.05,0.1 -0.05,0.17 -0.03,0.22 0.01,0.02 0.04,0.06 0.05,0.07l-0.12 0.04c-0.02,-0.01 -0.08,-0.06 -0.12,-0.14 -0.05,-0.12 0,-0.23 0.06,-0.33l0.31 -0.49c0.03,-0.05 0.05,-0.1 0.02,-0.17l-0.03 -0.07 -0.47 0.22z"/>
   <path class="fil2" d="M3.74 13.54c-0.12,0.01 -0.35,0.17 -0.49,0.32 -0.3,0.29 -0.34,0.61 -0.1,0.85 0.11,0.11 0.22,0.16 0.34,0.15 0.12,-0.01 0.35,-0.16 0.5,-0.31 0.29,-0.29 0.33,-0.61 0.09,-0.85 -0.11,-0.11 -0.22,-0.16 -0.34,-0.16zm-0.77 1.23c-0.34,-0.34 -0.22,-0.73 0.13,-1.08 0.31,-0.31 0.75,-0.45 1.16,-0.05 0.34,0.34 0.23,0.73 -0.13,1.08 -0.3,0.31 -0.75,0.45 -1.16,0.05z"/>
   <path class="fil2" d="M4.3 15.86l0.05 -0.13 0.12 0.03c0.05,0.01 0.07,-0.01 0.09,-0.06l0.52 -1.08c0.02,-0.05 0.01,-0.07 -0.04,-0.09l-0.11 -0.06 0.05 -0.13 0.43 0.17 -0.07 1.43 0.88 -1.11 0.45 0.18 -0.05 0.13 -0.12 -0.04c-0.05,-0.01 -0.08,0 -0.09,0.05l-0.36 1.14c-0.02,0.06 -0.02,0.08 0.03,0.11l0.12 0.07 -0.05 0.12 -0.55 -0.21 0.05 -0.13 0.12 0.03c0.05,0.01 0.07,0 0.09,-0.04l0.36 -1.14 -0.93 1.15 -0.16 -0.06 0.07 -1.49 -0.49 1.08c-0.01,0.04 -0.01,0.07 0.04,0.1l0.11 0.05 -0.05 0.13 -0.51 -0.2z"/>
   <path class="fil2" d="M7.59 15.22l-0.02 0.11 -0.22 0.65 0.5 0 -0.23 -0.65 -0.03 -0.11zm0.11 -0.47l0.26 0.26 -0.09 0.06 -0.26 -0.2 -0.26 0.2 -0.09 -0.06 0.26 -0.26 0.18 0zm-0.2 0.27l0.22 0 0.5 1.4c0.03,0.08 0.06,0.1 0.12,0.11l0.09 0.01 0 0.14 -0.6 0.01 0 -0.14 0.13 -0.02c0.04,-0.01 0.06,-0.02 0.06,-0.05 0,-0.02 0,-0.03 -0.01,-0.05l-0.1 -0.29 -0.62 0 -0.09 0.29c-0.01,0.02 -0.01,0.03 -0.01,0.05 0,0.03 0.02,0.05 0.06,0.06l0.13 0.02 0 0.13 -0.56 0 0 -0.13 0.09 -0.02c0.06,-0.01 0.08,-0.03 0.11,-0.11l0.48 -1.41z"/>
   <path class="fil2" d="M9.57 16.15c0.02,0.05 0.04,0.07 0.1,0.06l0.12 -0.03 0.05 0.13 -0.54 0.21 -0.05 -0.13 0.11 -0.06c0.05,-0.03 0.05,-0.05 0.03,-0.11l-0.43 -1.09c-0.02,-0.05 -0.04,-0.08 -0.1,-0.06l-0.11 0.03 -0.05 -0.13 0.36 -0.14 1.24 0.91 -0.38 -0.99c-0.02,-0.05 -0.04,-0.07 -0.1,-0.06l-0.11 0.03 -0.05 -0.13 0.53 -0.2 0.05 0.12 -0.11 0.06c-0.05,0.03 -0.05,0.06 -0.03,0.11l0.52 1.32 -0.19 0.08 -1.24 -0.91 0.38 0.98z"/>
   <path class="fil2" d="M11.93 15.09l-0.46 0.36 -0.08 -0.11 0.08 -0.09c0.04,-0.04 0.04,-0.06 0,-0.11l-0.73 -0.92c-0.04,-0.04 -0.06,-0.05 -0.11,-0.03l-0.11 0.06 -0.08 -0.1 0.45 -0.36 0.09 0.11 -0.09 0.09c-0.04,0.04 -0.03,0.06 0.01,0.11l0.73 0.92c0.03,0.04 0.05,0.05 0.1,0.03l0.11 -0.06 0.09 0.1z"/>
   <path class="fil2" d="M12.53 14.53l-0.11 -0.09 0.05 -0.11c0.03,-0.05 0.02,-0.07 -0.03,-0.1l-0.94 -0.71c-0.05,-0.03 -0.08,-0.04 -0.12,0l-0.08 0.09 -0.11 -0.08 0.71 -0.95 0.31 0.25 -0.09 0.12 -0.13 -0.09c-0.05,-0.03 -0.08,-0.01 -0.11,0.03l-0.32 0.43 0.44 0.33 0.32 -0.44 0.13 0.1 -0.32 0.44 0.49 0.36 0.33 -0.43c0.03,-0.04 0.04,-0.07 -0.01,-0.11l-0.13 -0.11 0.1 -0.13 0.33 0.23 -0.71 0.97z"/>
   <path class="fil2" d="M13.81 12.31l-0.22 0.54 -0.12 -0.05 0.02 -0.12c0.01,-0.06 0,-0.07 -0.05,-0.1l-1.09 -0.43c-0.06,-0.02 -0.08,-0.02 -0.11,0.03l-0.07 0.1 -0.12 -0.05 0.21 -0.53 0.13 0.05 -0.03 0.12c-0.01,0.06 0.01,0.07 0.06,0.09l1.09 0.44c0.05,0.02 0.08,0.02 0.11,-0.03l0.06 -0.11 0.13 0.05z"/>
  </g>
  <rect class="fil3" width="15.25" height="20.33"/>
 </g>
</svg>
