<?xml version="1.0" encoding="UTF-8"?>
<!DOCTYPE svg PUBLIC "-//W3C//DTD SVG 1.1//EN" "http://www.w3.org/Graphics/SVG/1.1/DTD/svg11.dtd">
<!-- Creator: CorelDRAW 2019 (64-Bit) -->
<svg xmlns="http://www.w3.org/2000/svg" xml:space="preserve" width="315px" height="300px" version="1.1" style="shape-rendering:geometricPrecision; text-rendering:geometricPrecision; image-rendering:optimizeQuality; fill-rule:evenodd; clip-rule:evenodd"
viewBox="0 0 41.14 39.18"
 xmlns:xlink="http://www.w3.org/1999/xlink"
 xmlns:xodm="http://www.corel.com/coreldraw/odm/2003">
 <defs>
  <style type="text/css">
   <![CDATA[
    .fil6 {fill:none}
    .fil1 {fill:#005AA0}
    .fil3 {fill:#DC371E}
    .fil2 {fill:#FFF500}
    .fil0 {fill:#FFF500}
    .fil4 {fill:black;fill-rule:nonzero}
    .fil5 {fill:#231F20;fill-rule:nonzero}
   ]]>
  </style>
 </defs>
 <g id="Layer_x0020_1">
  <metadata id="CorelCorpID_0Corel-Layer"/>
  <g id="_1955911828656">
   <polygon class="fil0" points="6.81,11.39 7.1,10.03 5.91,9.31 7.28,9.18 7.6,7.82 8.14,9.1 9.55,8.96 8.48,9.9 9.05,11.18 7.85,10.46 "/>
   <polygon class="fil0" points="11.24,6.23 11.53,4.86 10.34,4.15 11.71,4.01 12.03,2.65 12.57,3.93 13.98,3.81 12.91,4.73 13.47,6.01 12.28,5.29 "/>
   <polygon class="fil0" points="26.8,27.15 27.12,25.79 25.9,25.08 27.31,24.94 27.59,23.58 28.16,24.86 29.54,24.72 28.5,25.65 29.06,26.93 27.84,26.22 "/>
   <polygon class="fil0" points="31.09,22.03 31.38,20.67 30.18,19.95 31.56,19.82 31.87,18.45 32.42,19.74 33.82,19.61 32.75,20.54 33.32,21.82 32.13,21.1 "/>
   <polygon class="fil0" points="32.5,15.32 32.81,13.95 31.58,13.24 33,13.11 33.28,11.75 33.85,13.02 35.23,12.9 34.19,13.83 34.76,15.1 33.54,14.38 "/>
   <polygon class="fil0" points="29.9,8.99 30.19,7.63 29,6.91 30.41,6.77 30.7,5.41 31.26,6.69 32.64,6.56 31.6,7.49 32.14,8.77 30.94,8.06 "/>
   <polygon class="fil0" points="24.6,4.84 24.91,3.47 23.68,2.76 25.1,2.63 25.38,1.26 25.95,2.54 27.33,2.41 26.29,3.34 26.83,4.63 25.64,3.91 "/>
   <polygon class="fil0" points="17.69,3.57 17.97,2.21 16.78,1.49 18.16,1.36 18.48,0 19.04,1.28 20.42,1.14 19.38,2.07 19.92,3.36 18.73,2.64 "/>
   <path class="fil1" d="M11.38 19.67c2.17,0.15 4.92,-0.85 6.83,-1.68 0.2,-0.1 0.41,-0.2 0.56,-0.25 -0.3,-0.56 -0.56,-1.08 -0.86,-1.64 0.05,0.06 -0.97,-1.98 -1.53,-3 -0.05,-0.15 -0.16,-0.36 -0.25,-0.51 0.09,-0.05 0.15,-0.05 0.25,-0.1 0,-0.06 0.1,-0.1 0.2,-0.15l0.05 0 0.62 -0.31c2.44,-1.38 4.18,-3.21 5.15,-4.99 0.45,-0.77 0.71,-1.59 0.91,-2.19l-0.1 -0.11c-0.25,0.67 -0.56,1.27 -1.07,1.94 -1.12,1.58 -2.96,3.26 -5.3,4.48l-0.1 0.05c0,0 -0.36,0.21 -0.97,0.51 -0.15,0.11 -0.36,0.15 -0.56,0.26 -1.91,0.69 -3.62,1.3 -5.67,1.11 -1.48,-0.2 -2.45,-1.02 -2.45,-1.02 -0.41,1.79 -0.51,3.63 -0.2,5.51 0,0 1.07,2.14 4.49,2.09z"/>
   <path class="fil2" d="M28.41 9.43c-0.51,1.28 -1.22,2.65 -2.4,3.87 -1.48,1.73 -3.46,3.36 -5.86,4.64 -0.28,0.19 -0.62,0.31 -0.92,0.51 -0.2,0.1 -0.41,0.2 -0.56,0.25 -2.14,0.89 -4.25,1.73 -6.62,1.73 -4.08,-0.1 -4.79,-1.58 -4.79,-1.58 0.05,0.1 0.2,0.46 0.2,0.61 0.3,0.82 0.66,1.63 1.02,2.5 0.31,0.46 0.61,0.96 0.97,1.43 0,0 2.14,2.34 7.24,1.78 1.64,-0.18 3.62,-0.85 5.09,-1.68 0.21,-0.05 0.36,-0.09 0.51,-0.09 -0.86,-1.28 -1.68,-2.71 -2.6,-4.14l0.05 0c0.21,-0.05 0.36,-0.15 0.62,-0.25 0.41,-0.25 0.81,-0.46 1.16,-0.72 1.95,-1.22 3.57,-2.79 4.75,-4.43 1.07,-1.52 1.84,-3 2.14,-4.28l0 -0.15z"/>
   <path class="fil3" d="M28.56 19.26c-1.12,1.54 -2.96,3.07 -5.09,4.34 -0.21,0.1 -0.47,0.25 -0.72,0.4 -0.15,0.06 -0.31,0.11 -0.41,0.16 -3.33,1.58 -7.69,2.69 -11.21,1.04 3.54,3.35 9.77,4.35 14.22,2.37 0,-0.05 -1.53,-2.04 -2.09,-2.8 0.05,-0.05 0.15,-0.05 0.21,-0.1 0.45,-0.2 0.81,-0.46 1.12,-0.61 1.88,-1.28 3.26,-2.85 4.17,-4.29 0.47,-0.76 0.77,-1.47 0.92,-2.14l-0.1 -0.05c-0.16,0.51 -0.56,1.12 -1.02,1.68z"/>
   <polygon class="fil4" points="0.26,32.45 0.79,32.45 0.79,35.05 0.26,35.05 "/>
   <path class="fil4" d="M3 35.05l-0.5 0 0 -0.96c0,-0.21 -0.01,-0.34 -0.03,-0.4 -0.02,-0.06 -0.06,-0.11 -0.1,-0.14 -0.05,-0.03 -0.11,-0.05 -0.18,-0.05 -0.08,0 -0.16,0.03 -0.23,0.07 -0.07,0.05 -0.11,0.11 -0.14,0.19 -0.03,0.08 -0.04,0.22 -0.04,0.43l0 0.86 -0.5 0 0 -1.89 0.47 0 0 0.28c0.16,-0.21 0.37,-0.32 0.62,-0.32 0.11,0 0.21,0.02 0.3,0.06 0.09,0.04 0.16,0.09 0.21,0.15 0.04,0.06 0.08,0.13 0.09,0.21 0.02,0.08 0.03,0.19 0.03,0.34l0 1.17z"/>
   <path class="fil4" d="M3.33 34.51l0.5 -0.08c0.02,0.1 0.07,0.17 0.13,0.22 0.07,0.05 0.16,0.08 0.27,0.08 0.13,0 0.23,-0.02 0.3,-0.07 0.04,-0.03 0.06,-0.08 0.06,-0.13 0,-0.04 -0.01,-0.07 -0.03,-0.1 -0.03,-0.02 -0.08,-0.04 -0.17,-0.06 -0.4,-0.09 -0.66,-0.17 -0.77,-0.25 -0.15,-0.1 -0.22,-0.24 -0.22,-0.42 0,-0.16 0.06,-0.3 0.19,-0.41 0.13,-0.11 0.33,-0.17 0.6,-0.17 0.26,0 0.45,0.04 0.58,0.13 0.12,0.08 0.21,0.2 0.26,0.37l-0.47 0.09c-0.02,-0.08 -0.06,-0.13 -0.12,-0.17 -0.05,-0.04 -0.13,-0.06 -0.24,-0.06 -0.13,0 -0.22,0.02 -0.28,0.05 -0.04,0.03 -0.06,0.06 -0.06,0.1 0,0.04 0.02,0.07 0.05,0.1 0.05,0.03 0.2,0.07 0.47,0.14 0.27,0.06 0.45,0.13 0.56,0.22 0.1,0.09 0.15,0.21 0.15,0.37 0,0.17 -0.07,0.32 -0.22,0.44 -0.14,0.13 -0.35,0.19 -0.64,0.19 -0.25,0 -0.45,-0.05 -0.61,-0.16 -0.15,-0.1 -0.24,-0.24 -0.29,-0.42z"/>
   <path class="fil4" d="M6.39 33.16l0 0.4 -0.34 0 0 0.76c0,0.15 0,0.24 0.01,0.27 0.01,0.02 0.02,0.05 0.05,0.06 0.02,0.02 0.05,0.03 0.08,0.03 0.05,0 0.11,-0.02 0.2,-0.05l0.04 0.39c-0.11,0.04 -0.24,0.07 -0.39,0.07 -0.09,0 -0.17,-0.01 -0.24,-0.04 -0.08,-0.03 -0.13,-0.07 -0.16,-0.12 -0.04,-0.05 -0.06,-0.11 -0.07,-0.2 -0.01,-0.05 -0.02,-0.17 -0.02,-0.35l0 -0.82 -0.23 0 0 -0.4 0.23 0 0 -0.37 0.5 -0.29 0 0.66 0.34 0z"/>
   <path class="fil4" d="M7.22 35.05l-0.5 0 0 -1.89 0.46 0 0 0.27c0.08,-0.13 0.15,-0.21 0.21,-0.25 0.07,-0.04 0.14,-0.06 0.22,-0.06 0.11,0 0.22,0.03 0.33,0.09l-0.16 0.44c-0.08,-0.06 -0.16,-0.08 -0.23,-0.08 -0.07,0 -0.13,0.02 -0.18,0.06 -0.05,0.03 -0.08,0.1 -0.11,0.2 -0.03,0.1 -0.04,0.31 -0.04,0.63l0 0.59z"/>
   <path class="fil4" d="M9.39 35.05l0 -0.28c-0.06,0.1 -0.16,0.18 -0.27,0.23 -0.11,0.06 -0.23,0.09 -0.35,0.09 -0.13,0 -0.24,-0.03 -0.34,-0.08 -0.1,-0.06 -0.17,-0.14 -0.22,-0.24 -0.05,-0.1 -0.07,-0.24 -0.07,-0.41l0 -1.2 0.5 0 0 0.87c0,0.26 0.01,0.43 0.03,0.49 0.02,0.06 0.05,0.1 0.1,0.14 0.05,0.03 0.11,0.05 0.18,0.05 0.09,0 0.17,-0.02 0.23,-0.07 0.07,-0.05 0.12,-0.1 0.14,-0.17 0.03,-0.07 0.04,-0.24 0.04,-0.51l0 -0.8 0.5 0 0 1.89 -0.47 0z"/>
   <path class="fil4" d="M10.34 33.16l0.46 0 0 0.26c0.16,-0.2 0.36,-0.3 0.58,-0.3 0.12,0 0.23,0.03 0.32,0.07 0.09,0.05 0.16,0.13 0.22,0.23 0.08,-0.1 0.17,-0.18 0.26,-0.23 0.1,-0.04 0.2,-0.07 0.31,-0.07 0.14,0 0.26,0.03 0.35,0.08 0.1,0.06 0.17,0.14 0.22,0.25 0.03,0.08 0.05,0.21 0.05,0.39l0 1.21 -0.5 0 0 -1.08c0,-0.19 -0.02,-0.31 -0.05,-0.36 -0.05,-0.07 -0.12,-0.11 -0.21,-0.11 -0.07,0 -0.14,0.02 -0.2,0.07 -0.06,0.04 -0.11,0.1 -0.13,0.18 -0.03,0.09 -0.05,0.22 -0.05,0.39l0 0.91 -0.49 0 0 -1.03c0,-0.19 -0.01,-0.31 -0.03,-0.36 -0.02,-0.05 -0.05,-0.09 -0.08,-0.12 -0.04,-0.02 -0.09,-0.04 -0.15,-0.04 -0.08,0 -0.15,0.02 -0.21,0.06 -0.06,0.04 -0.11,0.11 -0.13,0.18 -0.03,0.08 -0.04,0.21 -0.04,0.39l0 0.92 -0.5 0 0 -1.89z"/>
   <path class="fil4" d="M14.73 33.94c-0.01,-0.14 -0.05,-0.25 -0.12,-0.33 -0.07,-0.07 -0.15,-0.11 -0.26,-0.11 -0.1,0 -0.19,0.04 -0.26,0.12 -0.08,0.08 -0.11,0.19 -0.11,0.32l0.75 0zm-0.03 0.51l0.49 0.08c-0.06,0.18 -0.16,0.32 -0.3,0.42 -0.14,0.09 -0.31,0.14 -0.52,0.14 -0.32,0 -0.57,-0.11 -0.72,-0.32 -0.13,-0.17 -0.19,-0.39 -0.19,-0.65 0,-0.31 0.08,-0.56 0.25,-0.73 0.16,-0.18 0.37,-0.27 0.61,-0.27 0.29,0 0.51,0.09 0.67,0.28 0.16,0.18 0.24,0.47 0.23,0.85l-1.25 0c0,0.15 0.04,0.26 0.12,0.34 0.08,0.09 0.17,0.13 0.29,0.13 0.08,0 0.14,-0.02 0.2,-0.07 0.05,-0.04 0.09,-0.11 0.12,-0.2z"/>
   <path class="fil4" d="M17.34 35.05l-0.5 0 0 -0.96c0,-0.21 -0.01,-0.34 -0.03,-0.4 -0.02,-0.06 -0.06,-0.11 -0.1,-0.14 -0.05,-0.03 -0.11,-0.05 -0.18,-0.05 -0.08,0 -0.16,0.03 -0.23,0.07 -0.07,0.05 -0.11,0.11 -0.14,0.19 -0.02,0.08 -0.04,0.22 -0.04,0.43l0 0.86 -0.5 0 0 -1.89 0.47 0 0 0.28c0.16,-0.21 0.37,-0.32 0.62,-0.32 0.11,0 0.21,0.02 0.3,0.06 0.09,0.04 0.16,0.09 0.21,0.15 0.04,0.06 0.08,0.13 0.09,0.21 0.02,0.08 0.03,0.19 0.03,0.34l0 1.17z"/>
   <path class="fil4" d="M18.71 33.16l0 0.4 -0.34 0 0 0.76c0,0.15 0,0.24 0.01,0.27 0.01,0.02 0.02,0.05 0.05,0.06 0.02,0.02 0.05,0.03 0.08,0.03 0.05,0 0.11,-0.02 0.2,-0.05l0.04 0.39c-0.11,0.04 -0.24,0.07 -0.39,0.07 -0.09,0 -0.17,-0.01 -0.24,-0.04 -0.08,-0.03 -0.13,-0.07 -0.16,-0.12 -0.04,-0.05 -0.06,-0.11 -0.07,-0.2 -0.01,-0.05 -0.02,-0.17 -0.02,-0.35l0 -0.82 -0.23 0 0 -0.4 0.23 0 0 -0.37 0.5 -0.29 0 0.66 0.34 0z"/>
   <path class="fil4" d="M20.18 33.94c-0.01,-0.14 -0.04,-0.25 -0.11,-0.33 -0.07,-0.07 -0.16,-0.11 -0.26,-0.11 -0.11,0 -0.2,0.04 -0.27,0.12 -0.07,0.08 -0.11,0.19 -0.11,0.32l0.75 0zm-0.03 0.51l0.5 0.08c-0.07,0.18 -0.17,0.32 -0.31,0.42 -0.13,0.09 -0.31,0.14 -0.51,0.14 -0.33,0 -0.57,-0.11 -0.73,-0.32 -0.13,-0.17 -0.19,-0.39 -0.19,-0.65 0,-0.31 0.08,-0.56 0.25,-0.73 0.16,-0.18 0.37,-0.27 0.62,-0.27 0.28,0 0.5,0.09 0.66,0.28 0.16,0.18 0.24,0.47 0.23,0.85l-1.25 0c0.01,0.15 0.05,0.26 0.12,0.34 0.08,0.09 0.18,0.13 0.29,0.13 0.08,0 0.15,-0.02 0.2,-0.07 0.05,-0.04 0.09,-0.11 0.12,-0.2z"/>
   <path class="fil4" d="M21.96 34.2l0.51 -0.05c0.03,0.17 0.09,0.3 0.19,0.38 0.09,0.08 0.22,0.12 0.38,0.12 0.17,0 0.3,-0.04 0.38,-0.11 0.09,-0.07 0.13,-0.15 0.13,-0.25 0,-0.06 -0.02,-0.11 -0.05,-0.16 -0.04,-0.04 -0.1,-0.08 -0.19,-0.11 -0.06,-0.02 -0.21,-0.06 -0.42,-0.11 -0.28,-0.07 -0.48,-0.16 -0.6,-0.26 -0.16,-0.14 -0.24,-0.32 -0.24,-0.52 0,-0.14 0.04,-0.26 0.12,-0.37 0.07,-0.12 0.18,-0.21 0.32,-0.27 0.14,-0.06 0.31,-0.09 0.51,-0.09 0.33,0 0.58,0.07 0.74,0.22 0.17,0.14 0.25,0.33 0.26,0.57l-0.52 0.02c-0.03,-0.13 -0.08,-0.23 -0.15,-0.29 -0.07,-0.05 -0.18,-0.08 -0.33,-0.08 -0.15,0 -0.27,0.03 -0.36,0.09 -0.06,0.04 -0.08,0.09 -0.08,0.16 0,0.06 0.02,0.12 0.07,0.16 0.07,0.06 0.23,0.11 0.49,0.17 0.25,0.06 0.44,0.13 0.56,0.19 0.13,0.07 0.22,0.15 0.29,0.27 0.07,0.11 0.11,0.25 0.11,0.41 0,0.15 -0.05,0.29 -0.13,0.42 -0.08,0.13 -0.2,0.23 -0.35,0.29 -0.15,0.06 -0.34,0.09 -0.57,0.09 -0.32,0 -0.58,-0.07 -0.75,-0.22 -0.18,-0.16 -0.29,-0.38 -0.32,-0.67z"/>
   <path class="fil4" d="M25.38 33.16l0 0.4 -0.34 0 0 0.76c0,0.15 0,0.24 0.01,0.27 0,0.02 0.02,0.05 0.04,0.06 0.02,0.02 0.05,0.03 0.09,0.03 0.04,0 0.11,-0.02 0.2,-0.05l0.04 0.39c-0.12,0.04 -0.25,0.07 -0.39,0.07 -0.09,0 -0.18,-0.01 -0.25,-0.04 -0.07,-0.03 -0.12,-0.07 -0.16,-0.12 -0.03,-0.05 -0.05,-0.11 -0.07,-0.2 -0.01,-0.05 -0.01,-0.17 -0.01,-0.35l0 -0.82 -0.23 0 0 -0.4 0.23 0 0 -0.37 0.5 -0.29 0 0.66 0.34 0z"/>
   <path class="fil4" d="M26.2 35.05l-0.5 0 0 -1.89 0.47 0 0 0.27c0.08,-0.13 0.15,-0.21 0.21,-0.25 0.06,-0.04 0.14,-0.06 0.22,-0.06 0.11,0 0.22,0.03 0.32,0.09l-0.15 0.44c-0.08,-0.06 -0.16,-0.08 -0.23,-0.08 -0.07,0 -0.13,0.02 -0.18,0.06 -0.05,0.03 -0.09,0.1 -0.12,0.2 -0.02,0.1 -0.04,0.31 -0.04,0.63l0 0.59z"/>
   <path class="fil4" d="M28.38 35.05l0 -0.28c-0.07,0.1 -0.16,0.18 -0.27,0.23 -0.11,0.06 -0.23,0.09 -0.35,0.09 -0.13,0 -0.24,-0.03 -0.35,-0.08 -0.1,-0.06 -0.17,-0.14 -0.21,-0.24 -0.05,-0.1 -0.07,-0.24 -0.07,-0.41l0 -1.2 0.5 0 0 0.87c0,0.26 0.01,0.43 0.02,0.49 0.02,0.06 0.06,0.1 0.11,0.14 0.04,0.03 0.11,0.05 0.18,0.05 0.09,0 0.16,-0.02 0.23,-0.07 0.07,-0.05 0.11,-0.1 0.14,-0.17 0.02,-0.07 0.03,-0.24 0.03,-0.51l0 -0.8 0.5 0 0 1.89 -0.46 0z"/>
   <path class="fil4" d="M31 33.72l-0.49 0.09c-0.01,-0.1 -0.05,-0.17 -0.11,-0.22 -0.06,-0.05 -0.14,-0.08 -0.23,-0.08 -0.12,0 -0.22,0.04 -0.3,0.13 -0.07,0.09 -0.11,0.23 -0.11,0.43 0,0.23 0.04,0.38 0.12,0.48 0.07,0.09 0.17,0.13 0.3,0.13 0.09,0 0.17,-0.02 0.23,-0.08 0.06,-0.05 0.1,-0.14 0.13,-0.27l0.49 0.08c-0.05,0.22 -0.15,0.39 -0.3,0.51 -0.14,0.11 -0.33,0.17 -0.58,0.17 -0.27,0 -0.49,-0.09 -0.65,-0.26 -0.17,-0.17 -0.25,-0.42 -0.25,-0.72 0,-0.31 0.08,-0.56 0.25,-0.73 0.16,-0.17 0.38,-0.26 0.66,-0.26 0.23,0 0.42,0.05 0.55,0.15 0.14,0.1 0.23,0.25 0.29,0.45z"/>
   <path class="fil4" d="M32.25 33.16l0 0.4 -0.35 0 0 0.76c0,0.15 0.01,0.24 0.01,0.27 0.01,0.02 0.03,0.05 0.05,0.06 0.02,0.02 0.05,0.03 0.08,0.03 0.05,0 0.12,-0.02 0.2,-0.05l0.05 0.39c-0.12,0.04 -0.25,0.07 -0.4,0.07 -0.09,0 -0.17,-0.01 -0.24,-0.04 -0.07,-0.03 -0.13,-0.07 -0.16,-0.12 -0.03,-0.05 -0.06,-0.11 -0.07,-0.2 -0.01,-0.05 -0.02,-0.17 -0.02,-0.35l0 -0.82 -0.22 0 0 -0.4 0.22 0 0 -0.37 0.5 -0.29 0 0.66 0.35 0z"/>
   <path class="fil4" d="M33.83 35.05l0 -0.28c-0.07,0.1 -0.16,0.18 -0.27,0.23 -0.11,0.06 -0.23,0.09 -0.35,0.09 -0.13,0 -0.24,-0.03 -0.34,-0.08 -0.1,-0.06 -0.18,-0.14 -0.22,-0.24 -0.05,-0.1 -0.07,-0.24 -0.07,-0.41l0 -1.2 0.5 0 0 0.87c0,0.26 0.01,0.43 0.03,0.49 0.02,0.06 0.05,0.1 0.1,0.14 0.05,0.03 0.11,0.05 0.18,0.05 0.09,0 0.16,-0.02 0.23,-0.07 0.07,-0.05 0.11,-0.1 0.14,-0.17 0.02,-0.07 0.04,-0.24 0.04,-0.51l0 -0.8 0.5 0 0 1.89 -0.47 0z"/>
   <path class="fil4" d="M35.29 35.05l-0.5 0 0 -1.89 0.46 0 0 0.27c0.08,-0.13 0.15,-0.21 0.22,-0.25 0.06,-0.04 0.13,-0.06 0.21,-0.06 0.12,0 0.23,0.03 0.33,0.09l-0.15 0.44c-0.09,-0.06 -0.16,-0.08 -0.24,-0.08 -0.07,0 -0.13,0.02 -0.17,0.06 -0.05,0.03 -0.09,0.1 -0.12,0.2 -0.03,0.1 -0.04,0.31 -0.04,0.63l0 0.59z"/>
   <path class="fil4" d="M37.27 34.14c-0.07,0.02 -0.17,0.05 -0.31,0.08 -0.14,0.03 -0.23,0.06 -0.27,0.09 -0.06,0.04 -0.1,0.1 -0.1,0.17 0,0.07 0.03,0.13 0.08,0.18 0.05,0.05 0.12,0.08 0.2,0.08 0.09,0 0.18,-0.03 0.26,-0.09 0.06,-0.04 0.1,-0.1 0.12,-0.17 0.01,-0.04 0.02,-0.12 0.02,-0.24l0 -0.1zm-0.67 -0.4l-0.45 -0.08c0.05,-0.19 0.14,-0.32 0.26,-0.41 0.12,-0.09 0.31,-0.13 0.55,-0.13 0.23,0 0.39,0.03 0.5,0.08 0.11,0.05 0.18,0.12 0.23,0.2 0.04,0.08 0.07,0.23 0.07,0.45l-0.01 0.58c0,0.16 0.01,0.29 0.03,0.36 0.01,0.08 0.04,0.17 0.08,0.26l-0.49 0c-0.01,-0.04 -0.03,-0.08 -0.05,-0.15 -0.01,-0.03 -0.01,-0.05 -0.01,-0.06 -0.09,0.08 -0.18,0.15 -0.28,0.19 -0.09,0.04 -0.2,0.06 -0.31,0.06 -0.19,0 -0.35,-0.05 -0.46,-0.16 -0.11,-0.1 -0.17,-0.24 -0.17,-0.4 0,-0.1 0.03,-0.2 0.08,-0.28 0.05,-0.09 0.12,-0.15 0.22,-0.19 0.09,-0.05 0.22,-0.09 0.39,-0.12 0.24,-0.04 0.4,-0.08 0.49,-0.12l0 -0.05c0,-0.1 -0.03,-0.17 -0.08,-0.21 -0.04,-0.04 -0.13,-0.06 -0.26,-0.06 -0.09,0 -0.16,0.02 -0.21,0.05 -0.05,0.04 -0.09,0.1 -0.12,0.19z"/>
   <polygon class="fil4" points="38.25,32.45 38.75,32.45 38.75,35.05 38.25,35.05 "/>
   <path class="fil4" d="M40.38 33.94c-0.01,-0.14 -0.04,-0.25 -0.11,-0.33 -0.07,-0.07 -0.16,-0.11 -0.26,-0.11 -0.11,0 -0.2,0.04 -0.27,0.12 -0.07,0.08 -0.11,0.19 -0.11,0.32l0.75 0zm-0.03 0.51l0.5 0.08c-0.07,0.18 -0.17,0.32 -0.31,0.42 -0.13,0.09 -0.31,0.14 -0.51,0.14 -0.33,0 -0.57,-0.11 -0.73,-0.32 -0.13,-0.17 -0.19,-0.39 -0.19,-0.65 0,-0.31 0.08,-0.56 0.25,-0.73 0.16,-0.18 0.37,-0.27 0.62,-0.27 0.28,0 0.5,0.09 0.66,0.28 0.16,0.18 0.24,0.47 0.23,0.85l-1.25 0c0.01,0.15 0.05,0.26 0.12,0.34 0.08,0.09 0.18,0.13 0.29,0.13 0.08,0 0.15,-0.02 0.2,-0.07 0.05,-0.04 0.09,-0.11 0.12,-0.2z"/>
   <path class="fil5" d="M14.17 38.67l0 0.47 -1.76 0c0.02,-0.18 0.08,-0.35 0.17,-0.51 0.1,-0.15 0.29,-0.36 0.57,-0.62 0.23,-0.22 0.36,-0.36 0.42,-0.43 0.07,-0.11 0.1,-0.21 0.1,-0.31 0,-0.11 -0.03,-0.2 -0.09,-0.26 -0.06,-0.06 -0.14,-0.09 -0.25,-0.09 -0.11,0 -0.19,0.03 -0.25,0.09 -0.06,0.07 -0.1,0.17 -0.11,0.32l-0.5 -0.05c0.03,-0.28 0.12,-0.48 0.28,-0.6 0.16,-0.12 0.36,-0.18 0.59,-0.18 0.26,0 0.46,0.07 0.61,0.21 0.15,0.14 0.22,0.32 0.22,0.52 0,0.12 -0.02,0.23 -0.06,0.34 -0.04,0.11 -0.11,0.22 -0.2,0.34 -0.06,0.07 -0.17,0.18 -0.33,0.33 -0.16,0.15 -0.26,0.24 -0.3,0.29 -0.04,0.05 -0.08,0.09 -0.1,0.14l0.99 0z"/>
   <path class="fil5" d="M15.27 36.92c-0.06,0 -0.11,0.02 -0.16,0.06 -0.05,0.04 -0.09,0.11 -0.11,0.21 -0.04,0.13 -0.05,0.35 -0.05,0.65 0,0.31 0.01,0.52 0.04,0.64 0.03,0.11 0.07,0.19 0.12,0.23 0.05,0.03 0.1,0.05 0.16,0.05 0.06,0 0.12,-0.02 0.16,-0.05 0.05,-0.04 0.09,-0.11 0.11,-0.21 0.04,-0.13 0.06,-0.35 0.06,-0.66 0,-0.3 -0.02,-0.52 -0.05,-0.63 -0.03,-0.12 -0.07,-0.19 -0.12,-0.23 -0.04,-0.04 -0.1,-0.06 -0.16,-0.06zm0 -0.42c0.25,0 0.45,0.09 0.6,0.27 0.17,0.22 0.25,0.58 0.25,1.07 0,0.5 -0.08,0.85 -0.26,1.07 -0.14,0.18 -0.34,0.27 -0.59,0.27 -0.25,0 -0.46,-0.1 -0.62,-0.29 -0.15,-0.2 -0.23,-0.55 -0.23,-1.05 0,-0.5 0.09,-0.85 0.26,-1.07 0.14,-0.18 0.34,-0.27 0.59,-0.27z"/>
   <path class="fil5" d="M17.43 39.14l-0.51 0 0 -1.9c-0.18,0.17 -0.4,0.3 -0.64,0.38l0 -0.45c0.13,-0.05 0.27,-0.13 0.42,-0.25 0.16,-0.12 0.26,-0.26 0.32,-0.42l0.41 0 0 2.64z"/>
   <path class="fil5" d="M18.79 38.17l0 -0.9 -0.61 0.9 0.61 0zm0 0.97l0 -0.53 -1.08 0 0 -0.44 1.14 -1.67 0.42 0 0 1.67 0.33 0 0 0.44 -0.33 0 0 0.53 -0.48 0z"/>
   <polygon class="fil5" points="19.99,37.93 20.97,37.93 20.97,38.44 19.99,38.44 "/>
   <path class="fil5" d="M22.89 38.67l0 0.47 -1.76 0c0.02,-0.18 0.07,-0.35 0.17,-0.51 0.09,-0.15 0.28,-0.36 0.56,-0.62 0.23,-0.22 0.37,-0.36 0.42,-0.43 0.07,-0.11 0.1,-0.21 0.1,-0.31 0,-0.11 -0.03,-0.2 -0.09,-0.26 -0.06,-0.06 -0.14,-0.09 -0.25,-0.09 -0.1,0 -0.18,0.03 -0.25,0.09 -0.06,0.07 -0.09,0.17 -0.1,0.32l-0.5 -0.05c0.03,-0.28 0.12,-0.48 0.28,-0.6 0.15,-0.12 0.35,-0.18 0.59,-0.18 0.26,0 0.46,0.07 0.61,0.21 0.14,0.14 0.22,0.32 0.22,0.52 0,0.12 -0.02,0.23 -0.07,0.34 -0.04,0.11 -0.1,0.22 -0.2,0.34 -0.06,0.07 -0.17,0.18 -0.32,0.33 -0.16,0.15 -0.26,0.24 -0.31,0.29 -0.04,0.05 -0.07,0.09 -0.1,0.14l1 0z"/>
   <path class="fil5" d="M23.99 36.92c-0.07,0 -0.12,0.02 -0.17,0.06 -0.04,0.04 -0.08,0.11 -0.11,0.21 -0.03,0.13 -0.05,0.35 -0.05,0.65 0,0.31 0.01,0.52 0.05,0.64 0.03,0.11 0.07,0.19 0.11,0.23 0.05,0.03 0.1,0.05 0.17,0.05 0.06,0 0.11,-0.02 0.16,-0.05 0.05,-0.04 0.08,-0.11 0.11,-0.21 0.03,-0.13 0.05,-0.35 0.05,-0.66 0,-0.3 -0.01,-0.52 -0.05,-0.63 -0.03,-0.12 -0.07,-0.19 -0.11,-0.23 -0.05,-0.04 -0.1,-0.06 -0.16,-0.06zm0 -0.42c0.25,0 0.45,0.09 0.59,0.27 0.17,0.22 0.26,0.58 0.26,1.07 0,0.5 -0.09,0.85 -0.26,1.07 -0.14,0.18 -0.34,0.27 -0.59,0.27 -0.26,0 -0.47,-0.1 -0.62,-0.29 -0.16,-0.2 -0.24,-0.55 -0.24,-1.05 0,-0.5 0.09,-0.85 0.26,-1.07 0.14,-0.18 0.34,-0.27 0.6,-0.27z"/>
   <path class="fil5" d="M26.78 38.67l0 0.47 -1.76 0c0.01,-0.18 0.07,-0.35 0.17,-0.51 0.09,-0.15 0.28,-0.36 0.56,-0.62 0.23,-0.22 0.37,-0.36 0.42,-0.43 0.07,-0.11 0.1,-0.21 0.1,-0.31 0,-0.11 -0.03,-0.2 -0.09,-0.26 -0.06,-0.06 -0.14,-0.09 -0.25,-0.09 -0.1,0 -0.18,0.03 -0.25,0.09 -0.06,0.07 -0.09,0.17 -0.1,0.32l-0.5 -0.05c0.03,-0.28 0.12,-0.48 0.28,-0.6 0.15,-0.12 0.35,-0.18 0.59,-0.18 0.26,0 0.46,0.07 0.61,0.21 0.14,0.14 0.22,0.32 0.22,0.52 0,0.12 -0.02,0.23 -0.07,0.34 -0.04,0.11 -0.11,0.22 -0.2,0.34 -0.06,0.07 -0.17,0.18 -0.33,0.33 -0.15,0.15 -0.26,0.24 -0.3,0.29 -0.04,0.05 -0.07,0.09 -0.1,0.14l1 0z"/>
   <path class="fil5" d="M27.88 36.92c-0.07,0 -0.12,0.02 -0.17,0.06 -0.05,0.04 -0.08,0.11 -0.11,0.21 -0.03,0.13 -0.05,0.35 -0.05,0.65 0,0.31 0.02,0.52 0.05,0.64 0.03,0.11 0.07,0.19 0.11,0.23 0.05,0.03 0.1,0.05 0.17,0.05 0.06,0 0.11,-0.02 0.16,-0.05 0.05,-0.04 0.08,-0.11 0.11,-0.21 0.03,-0.13 0.05,-0.35 0.05,-0.66 0,-0.3 -0.01,-0.52 -0.05,-0.63 -0.03,-0.12 -0.07,-0.19 -0.11,-0.23 -0.05,-0.04 -0.1,-0.06 -0.16,-0.06zm0 -0.42c0.25,0 0.45,0.09 0.59,0.27 0.17,0.22 0.26,0.58 0.26,1.07 0,0.5 -0.09,0.85 -0.26,1.07 -0.14,0.18 -0.34,0.27 -0.59,0.27 -0.26,0 -0.47,-0.1 -0.62,-0.29 -0.16,-0.2 -0.24,-0.55 -0.24,-1.05 0,-0.5 0.09,-0.85 0.26,-1.07 0.14,-0.18 0.34,-0.27 0.6,-0.27z"/>
  </g>
  <rect class="fil6" width="41.14" height="39.18"/>
 </g>
</svg>
