<?xml version="1.0" encoding="UTF-8"?>
<!DOCTYPE svg PUBLIC "-//W3C//DTD SVG 1.1//EN" "http://www.w3.org/Graphics/SVG/1.1/DTD/svg11.dtd">
<!-- Creator: CorelDRAW 2019 (64-Bit) -->
<svg xmlns="http://www.w3.org/2000/svg" xml:space="preserve" width="323px" height="300px" version="1.1" style="shape-rendering:geometricPrecision; text-rendering:geometricPrecision; image-rendering:optimizeQuality; fill-rule:evenodd; clip-rule:evenodd"
viewBox="0 0 21.92 20.39"
 xmlns:xlink="http://www.w3.org/1999/xlink"
 xmlns:xodm="http://www.corel.com/coreldraw/odm/2003">
 <defs>
  <style type="text/css">
   <![CDATA[
    .fil3 {fill:none}
    .fil1 {fill:#FFCC00}
    .fil0 {fill:#003399;fill-rule:nonzero}
    .fil2 {fill:#003399;fill-rule:nonzero}
   ]]>
  </style>
 </defs>
 <g id="Layer_x0020_1">
  <metadata id="CorelCorpID_0Corel-Layer"/>
  <g id="_1954875426368">
   <polygon class="fil0" points="0.09,15.99 21.83,15.99 21.83,1.55 0.09,1.55 "/>
   <polygon class="fil1" points="10.86,3.68 11.49,3.68 10.98,4.07 11.17,4.67 10.67,4.3 10.16,4.67 10.36,4.07 9.85,3.68 10.48,3.68 10.67,3.09 "/>
   <polygon class="fil1" points="10.88,13.46 11.51,13.46 11.01,13.84 11.2,14.45 10.7,14.07 10.19,14.45 10.39,13.84 9.88,13.46 10.51,13.46 10.7,12.87 "/>
   <polygon class="fil1" points="13.3,12.81 13.93,12.81 13.42,13.19 13.62,13.8 13.11,13.43 12.6,13.8 12.8,13.19 12.29,12.81 12.92,12.81 13.11,12.22 "/>
   <polygon class="fil1" points="13.3,4.33 13.93,4.33 13.42,4.71 13.62,5.32 13.11,4.94 12.6,5.32 12.8,4.71 12.29,4.33 12.92,4.33 13.11,3.74 "/>
   <polygon class="fil1" points="15.09,6.12 15.72,6.12 15.21,6.51 15.41,7.11 14.9,6.74 14.39,7.11 14.59,6.51 14.08,6.12 14.71,6.12 14.9,5.53 "/>
   <polygon class="fil1" points="15.09,11.04 15.72,11.04 15.21,11.42 15.41,12.03 14.9,11.66 14.39,12.03 14.59,11.42 14.08,11.04 14.71,11.04 14.9,10.45 "/>
   <polygon class="fil1" points="15.76,8.54 16.39,8.54 15.88,8.93 16.08,9.53 15.57,9.16 15.07,9.53 15.27,8.93 14.75,8.54 15.38,8.54 15.57,7.95 "/>
   <polygon class="fil1" points="8.39,4.33 9.03,4.33 8.52,4.72 8.71,5.32 8.21,4.95 7.7,5.32 7.9,4.72 7.39,4.33 8.02,4.33 8.21,3.74 "/>
   <polygon class="fil1" points="6.65,6.13 7.28,6.13 6.78,6.51 6.97,7.12 6.47,6.75 5.96,7.12 6.16,6.51 5.65,6.13 6.28,6.13 6.47,5.54 "/>
   <polygon class="fil1" points="6.01,8.55 6.64,8.55 6.13,8.93 6.33,9.54 5.82,9.17 5.31,9.54 5.51,8.93 5,8.55 5.63,8.55 5.82,7.96 "/>
   <polygon class="fil1" points="6.65,11.05 7.28,11.05 6.78,11.43 6.97,12.03 6.47,11.66 5.96,12.03 6.16,11.43 5.65,11.05 6.28,11.05 6.47,10.46 "/>
   <polygon class="fil1" points="8.42,12.82 9.05,12.82 8.54,13.2 8.74,13.81 8.23,13.43 7.73,13.81 7.93,13.2 7.42,12.82 8.04,12.82 8.23,12.23 "/>
   <path class="fil2" d="M1.2 17.43l0.18 0 0 0.8c0,0.14 -0.02,0.25 -0.05,0.33 -0.03,0.08 -0.09,0.15 -0.17,0.2 -0.08,0.05 -0.19,0.08 -0.32,0.08 -0.13,0 -0.24,-0.02 -0.32,-0.07 -0.08,-0.04 -0.14,-0.11 -0.18,-0.19 -0.03,-0.09 -0.05,-0.2 -0.05,-0.35l0 -0.8 0.18 0 0 0.8c0,0.12 0.02,0.21 0.04,0.27 0.02,0.05 0.06,0.1 0.11,0.13 0.06,0.03 0.12,0.05 0.2,0.05 0.14,0 0.23,-0.04 0.29,-0.1 0.06,-0.06 0.09,-0.18 0.09,-0.35l0 -0.8z"/>
   <polygon id="1" class="fil2" points="1.69,18.82 1.69,17.43 1.87,17.43 2.6,18.52 2.6,17.43 2.78,17.43 2.78,18.82 2.59,18.82 1.86,17.73 1.86,18.82 "/>
   <polygon id="2" class="fil2" points="3.12,18.82 3.12,17.43 3.3,17.43 3.3,18.82 "/>
   <path id="3" class="fil2" d="M4.54 17.43l0.18 0 0 0.8c0,0.14 -0.02,0.25 -0.05,0.33 -0.03,0.08 -0.09,0.15 -0.17,0.2 -0.08,0.05 -0.19,0.08 -0.32,0.08 -0.13,0 -0.24,-0.02 -0.32,-0.07 -0.08,-0.04 -0.14,-0.11 -0.18,-0.19 -0.03,-0.09 -0.05,-0.2 -0.05,-0.35l0 -0.8 0.18 0 0 0.8c0,0.12 0.02,0.21 0.04,0.27 0.02,0.05 0.06,0.1 0.11,0.13 0.06,0.03 0.12,0.05 0.2,0.05 0.14,0 0.23,-0.04 0.29,-0.1 0.06,-0.06 0.09,-0.18 0.09,-0.35l0 -0.8z"/>
   <polygon id="4" class="fil2" points="5.03,18.82 5.03,17.43 5.21,17.43 5.94,18.52 5.94,17.43 6.12,17.43 6.12,18.82 5.93,18.82 5.2,17.73 5.2,18.82 "/>
   <polygon id="5" class="fil2" points="6.43,18.82 6.43,17.43 7.43,17.43 7.43,17.59 6.62,17.59 6.62,18.02 7.38,18.02 7.38,18.18 6.62,18.18 6.62,18.65 7.47,18.65 7.47,18.82 "/>
   <path id="6" class="fil2" d="M7.57 18.82l0.53 -1.39 0.2 0 0.57 1.39 -0.21 0 -0.16 -0.42 -0.58 0 -0.16 0.42 -0.19 0zm0.4 -0.57l0.47 0 -0.14 -0.39c-0.05,-0.12 -0.08,-0.21 -0.1,-0.29 -0.02,0.09 -0.05,0.18 -0.08,0.27l-0.15 0.41z"/>
   <polygon id="7" class="fil2" points="9.45,18.82 9.45,17.43 10.45,17.43 10.45,17.59 9.64,17.59 9.64,18.02 10.4,18.02 10.4,18.18 9.64,18.18 9.64,18.65 10.49,18.65 10.49,18.82 "/>
   <path id="8" class="fil2" d="M11.65 17.43l0.19 0 0 0.8c0,0.14 -0.02,0.25 -0.05,0.33 -0.03,0.08 -0.09,0.15 -0.17,0.2 -0.08,0.05 -0.19,0.08 -0.33,0.08 -0.13,0 -0.23,-0.02 -0.31,-0.07 -0.09,-0.04 -0.15,-0.11 -0.18,-0.19 -0.04,-0.09 -0.05,-0.2 -0.05,-0.35l0 -0.8 0.18 0 0 0.8c0,0.12 0.01,0.21 0.03,0.27 0.03,0.05 0.06,0.1 0.12,0.13 0.05,0.03 0.12,0.05 0.2,0.05 0.13,0 0.23,-0.04 0.29,-0.1 0.05,-0.06 0.08,-0.18 0.08,-0.35l0 -0.8z"/>
   <path id="9" class="fil2" d="M12.15 18.82l0 -1.39 0.61 0c0.13,0 0.22,0.01 0.28,0.04 0.07,0.02 0.12,0.06 0.16,0.13 0.04,0.06 0.06,0.13 0.06,0.21 0,0.1 -0.04,0.18 -0.1,0.25 -0.06,0.06 -0.16,0.11 -0.3,0.12 0.05,0.03 0.09,0.05 0.12,0.07 0.05,0.05 0.1,0.11 0.15,0.19l0.24 0.38 -0.23 0 -0.19 -0.29c-0.05,-0.09 -0.09,-0.15 -0.13,-0.19 -0.03,-0.05 -0.06,-0.08 -0.09,-0.1 -0.03,-0.01 -0.06,-0.03 -0.08,-0.03 -0.03,-0.01 -0.06,-0.01 -0.11,-0.01l-0.21 0 0 0.62 -0.18 0zm0.18 -0.78l0.39 0c0.09,0 0.15,-0.01 0.2,-0.02 0.05,-0.02 0.08,-0.05 0.11,-0.09 0.02,-0.04 0.04,-0.08 0.04,-0.12 0,-0.07 -0.03,-0.12 -0.08,-0.16 -0.04,-0.05 -0.12,-0.07 -0.22,-0.07l-0.44 0 0 0.46z"/>
   <path class="fil2" d="M13.69 18.14c0,-0.23 0.06,-0.41 0.19,-0.54 0.12,-0.13 0.28,-0.19 0.48,-0.19 0.12,0 0.24,0.03 0.34,0.09 0.1,0.06 0.18,0.14 0.24,0.25 0.05,0.11 0.08,0.24 0.08,0.38 0,0.14 -0.03,0.26 -0.09,0.37 -0.05,0.11 -0.13,0.2 -0.24,0.25 -0.1,0.06 -0.22,0.09 -0.34,0.09 -0.13,0 -0.24,-0.03 -0.35,-0.09 -0.1,-0.07 -0.18,-0.15 -0.23,-0.26 -0.05,-0.11 -0.08,-0.23 -0.08,-0.35zm0.19 0c0,0.17 0.05,0.3 0.13,0.4 0.09,0.1 0.21,0.14 0.34,0.14 0.14,0 0.26,-0.05 0.34,-0.14 0.09,-0.1 0.14,-0.24 0.14,-0.42 0,-0.11 -0.02,-0.21 -0.06,-0.29 -0.04,-0.08 -0.09,-0.15 -0.17,-0.2 -0.07,-0.04 -0.15,-0.07 -0.24,-0.07 -0.13,0 -0.25,0.05 -0.34,0.14 -0.09,0.09 -0.14,0.24 -0.14,0.44z"/>
   <path id="1" class="fil2" d="M15.27 18.82l0 -1.39 0.53 0c0.09,0 0.16,0 0.21,0.01 0.07,0.01 0.13,0.03 0.17,0.07 0.05,0.03 0.09,0.07 0.11,0.13 0.03,0.06 0.05,0.12 0.05,0.19 0,0.12 -0.04,0.22 -0.12,0.3 -0.07,0.08 -0.21,0.12 -0.4,0.12l-0.36 0 0 0.57 -0.19 0zm0.19 -0.73l0.36 0c0.12,0 0.2,-0.02 0.25,-0.07 0.05,-0.04 0.08,-0.1 0.08,-0.19 0,-0.05 -0.02,-0.1 -0.05,-0.14 -0.03,-0.05 -0.07,-0.07 -0.11,-0.09 -0.04,0 -0.09,-0.01 -0.18,-0.01l-0.35 0 0 0.5z"/>
   <polygon id="2" class="fil2" points="16.59,18.82 16.59,17.43 17.59,17.43 17.59,17.59 16.78,17.59 16.78,18.02 17.54,18.02 17.54,18.18 16.78,18.18 16.78,18.65 17.63,18.65 17.63,18.82 "/>
   <path class="fil2" d="M17.75 18.82l0.53 -1.39 0.2 0 0.57 1.39 -0.21 0 -0.16 -0.42 -0.59 0 -0.15 0.42 -0.19 0zm0.4 -0.57l0.47 0 -0.14 -0.39c-0.05,-0.12 -0.08,-0.21 -0.1,-0.29 -0.02,0.09 -0.05,0.18 -0.08,0.27l-0.15 0.41z"/>
   <polygon class="fil2" points="19.21,18.82 19.21,17.43 19.4,17.43 20.13,18.52 20.13,17.43 20.31,17.43 20.31,18.82 20.12,18.82 19.39,17.73 19.39,18.82 "/>
   <path id="1" class="fil2" d="M20.46 18.82l0.54 -1.39 0.2 0 0.56 1.39 -0.21 0 -0.16 -0.42 -0.58 0 -0.15 0.42 -0.2 0zm0.4 -0.57l0.48 0 -0.15 -0.39c-0.04,-0.12 -0.08,-0.21 -0.1,-0.29 -0.02,0.09 -0.04,0.18 -0.08,0.27l-0.15 0.41zm0.4 -1.16l0.12 0c-0.01,0.08 -0.04,0.15 -0.09,0.19 -0.05,0.04 -0.11,0.06 -0.19,0.06 -0.08,0 -0.15,-0.02 -0.19,-0.06 -0.05,-0.04 -0.08,-0.1 -0.09,-0.19l0.12 0c0,0.05 0.02,0.08 0.05,0.1 0.02,0.02 0.06,0.03 0.1,0.03 0.06,0 0.09,-0.01 0.12,-0.03 0.03,-0.02 0.04,-0.05 0.05,-0.1z"/>
  </g>
  <rect class="fil3" width="21.92" height="20.39"/>
 </g>
</svg>
